<svg xmlns="http://www.w3.org/2000/svg" viewBox="0 0 512 512"><path d="M0 0h512v512H0z"/><g fill="#FFF"><path d="M24.4 176h3.2c8.5 0 36.8-.7 47.3-.7 64 0 89.9 36.8 89.9 79.4 0 44.8-30.6 81.9-91.7 81.9-8.5 0-29.5-.5-44.8-.5h-3.9V176zM61 210.3v91.5c4.8.5 8 .5 13.3.5 31.6 0 51.7-17.2 51.7-47.6 0-29.5-21.7-45.1-51.5-45.1-3.9 0-8.9 0-13.5.7zM258.2 173.2c48.7 0 85.1 31.8 85.1 82.8 0 48.5-36.4 82.8-85.1 82.8S173.1 307 173.1 256c0-46.4 34.1-82.8 85.1-82.8zm0 131.3c30.4 0 46.2-21.5 46.2-48.5 0-29.3-20.4-48.5-46.2-48.5-26.5 0-46.2 19.2-46.2 48.5 0 27.4 20.6 48.5 46.2 48.5zM487.6 270c0 48.9-31.1 68.8-65.4 68.8-41.2 0-69.7-23.6-69.7-70.4V176H389v84.6c0 24.9 7.5 43.9 33.2 43.9 22.2 0 28.8-16.2 28.8-41.9V176h36.6v94z"/></g></svg>