<?xml version="1.0" encoding="utf-8"?>
<!-- Generator: Adobe Illustrator 24.0.1, SVG Export Plug-In . SVG Version: 6.00 Build 0)  -->
<svg version="1.1" id="Слой_1" xmlns="http://www.w3.org/2000/svg" xmlns:xlink="http://www.w3.org/1999/xlink" x="0px" y="0px"
	 viewBox="0 0 24 24" enable-background="new 0 0 24 24" xml:space="preserve">
<path d="M23.3,0H0.7C0.4,0,0.1,0.3,0.1,0.6v22.8c0,0.3,0.3,0.6,0.6,0.6h7.5v0c0.3,0,0.6-0.2,0.6-0.5c0-0.8,0-1.7,0-2.5
	c-0.6,0-1.2,0.1-1.8,0.1c-1.3-0.1-2.2-0.6-2.7-1.8c-0.3-0.7-0.7-1.4-1.4-1.8c-0.1-0.1-0.2-0.2-0.3-0.3c-0.1-0.2-0.1-0.3,0.1-0.3
	c0.2,0,0.4-0.1,0.6,0c0.8,0.2,1.4,0.7,1.8,1.3c0.8,1.3,2.1,1.7,3.6,1.1c0.1,0,0.2-0.1,0.2-0.2c0.1-0.6,0.3-1.1,0.8-1.6
	c-0.5-0.1-0.9-0.2-1.4-0.3C7,16.9,5.8,16.3,5,15.3c-0.7-0.9-1-1.9-1.1-3C3.6,10.6,3.8,9,5,7.7C5,7.6,5.1,7.5,5,7.4
	c-0.3-1-0.2-1.9,0-2.8C5.2,4.1,5.3,4,5.8,4.1c0,0,0.1,0,0.1,0c1,0.2,1.9,0.7,2.7,1.2C8.7,5.4,8.9,5.4,9,5.4c2-0.5,4.1-0.5,6.1,0
	c0.1,0,0.3,0,0.4-0.1c0.5-0.2,0.9-0.5,1.4-0.8c0.5-0.3,1.1-0.5,1.7-0.5c0.1,0,0.3,0.1,0.3,0.2c0.4,1,0.5,2,0.2,3
	c0,0.1,0,0.3,0.1,0.4c0.3,0.5,0.7,1,0.9,1.6c0.6,1.7,0.4,3.5-0.4,5.1c-0.7,1.5-2,2.3-3.6,2.7c-0.5,0.1-1.1,0.2-1.6,0.3
	c0.7,0.8,0.9,1.7,0.8,2.7c0,1,0,2,0,3.1c0,0.5,0.2,0.8,0.6,0.8c0,0,8,0,8,0V0.6C23.9,0.3,23.6,0,23.3,0z"/>
</svg>
