<?xml version="1.0" encoding="utf-8"?>
<!-- Generator: Adobe Illustrator 24.0.1, SVG Export Plug-In . SVG Version: 6.00 Build 0)  -->
<svg version="1.1" id="Слой_1" xmlns="http://www.w3.org/2000/svg" xmlns:xlink="http://www.w3.org/1999/xlink" x="0px" y="0px"
	 viewBox="0 0 24 24" enable-background="new 0 0 24 24" xml:space="preserve">
<g>
	<path fill="#FC6D26" d="M24,13.6l-1.3-4.1L20,1.3c0-0.1-0.1-0.2-0.2-0.2c-0.1-0.1-0.2-0.1-0.3-0.1c-0.1,0-0.2,0-0.3,0.1
		c-0.1,0.1-0.1,0.1-0.2,0.2l-2.7,8.2H7.6L4.9,1.3c0-0.1-0.1-0.2-0.2-0.2C4.7,1,4.6,0.9,4.5,0.9C4.4,0.9,4.3,1,4.2,1
		C4.1,1.1,4.1,1.2,4,1.3L1.4,9.5L0,13.6C0,13.8,0,14,0,14.2c0.1,0.2,0.2,0.3,0.3,0.5L12,23.1l11.6-8.4c0.2-0.1,0.3-0.3,0.3-0.5
		C24,14,24,13.8,24,13.6z"/>
	<path fill="#E24329" d="M12,23l4.4-13.6H7.6L12,23z"/>
	<path fill="#FC6D26" d="M12,23L7.6,9.4H1.4L12,23z"/>
	<path fill="#FCA326" d="M1.4,9.5L0,13.6C0,13.8,0,14,0,14.2c0.1,0.2,0.2,0.3,0.3,0.5L12,23.1L1.4,9.5z"/>
	<path fill="#E24329" d="M1.4,9.5h6.2L4.9,1.3c0-0.1-0.1-0.2-0.2-0.2C4.7,1,4.6,0.9,4.5,0.9C4.4,0.9,4.3,1,4.2,1
		C4.1,1.1,4.1,1.2,4,1.3L1.4,9.5z"/>
	<path fill="#FC6D26" d="M12,23l4.4-13.6h6.2L12,23z"/>
	<path fill="#FCA326" d="M22.6,9.5l1.3,4.1c0.1,0.2,0.1,0.4,0,0.6c-0.1,0.2-0.2,0.3-0.3,0.5L12,23L22.6,9.5L22.6,9.5z"/>
	<path fill="#E24329" d="M22.6,9.5h-6.2l2.7-8.2c0-0.1,0.1-0.2,0.2-0.2c0.1-0.1,0.2-0.1,0.3-0.1c0.1,0,0.2,0,0.3,0.1
		c0.1,0.1,0.1,0.1,0.2,0.2L22.6,9.5z"/>
</g>
</svg>
