<?xml version="1.0" encoding="utf-8"?>
<!-- Generator: Adobe Illustrator 24.0.1, SVG Export Plug-In . SVG Version: 6.00 Build 0)  -->
<svg version="1.1" id="Слой_1" xmlns="http://www.w3.org/2000/svg" xmlns:xlink="http://www.w3.org/1999/xlink" x="0px" y="0px"
	 viewBox="0 0 24 24" enable-background="new 0 0 24 24" xml:space="preserve">
<g>
	<path d="M12,2.2c3.2,0,3.6,0,4.8,0.1c1.2,0.1,1.8,0.2,2.2,0.4c0.5,0.2,1,0.5,1.4,0.9c0.4,0.4,0.7,0.9,0.9,1.4
		c0.2,0.4,0.4,1.1,0.4,2.2c0.1,1.3,0.1,1.6,0.1,4.8c0,3.2,0,3.6-0.1,4.8c-0.1,1.2-0.2,1.8-0.4,2.2c-0.2,0.5-0.5,1-0.9,1.4
		c-0.4,0.4-0.9,0.7-1.4,0.9c-0.4,0.2-1.1,0.4-2.2,0.4c-1.3,0.1-1.6,0.1-4.8,0.1c-3.2,0-3.6,0-4.8-0.1c-1.2-0.1-1.8-0.2-2.2-0.4
		c-0.5-0.2-1-0.5-1.4-0.9c-0.4-0.4-0.7-0.9-0.9-1.4c-0.2-0.4-0.4-1.1-0.4-2.2c-0.1-1.3-0.1-1.6-0.1-4.8c0-3.2,0-3.6,0.1-4.8
		C2.3,6,2.5,5.3,2.6,4.9c0.2-0.5,0.5-1,0.9-1.4c0.4-0.4,0.9-0.7,1.4-0.9C5.3,2.5,6,2.3,7.2,2.2C8.4,2.2,8.8,2.2,12,2.2L12,2.2z
		 M12,0C8.7,0,8.3,0,7.1,0.1C5.8,0.1,4.9,0.3,4.1,0.6C3.3,0.9,2.6,1.4,2,2C1.4,2.6,0.9,3.3,0.6,4.1C0.3,4.9,0.1,5.8,0.1,7.1
		C0,8.3,0,8.7,0,12c0,3.3,0,3.7,0.1,4.9c0.1,1.3,0.3,2.1,0.6,2.9C0.9,20.7,1.4,21.4,2,22c0.6,0.6,1.3,1.1,2.1,1.4
		c0.8,0.3,1.6,0.5,2.9,0.6C8.3,24,8.7,24,12,24c3.3,0,3.7,0,4.9-0.1c1.3-0.1,2.1-0.3,2.9-0.6c0.8-0.3,1.5-0.8,2.1-1.4
		c0.6-0.6,1.1-1.3,1.4-2.1c0.3-0.8,0.5-1.6,0.6-2.9C24,15.7,24,15.3,24,12c0-3.3,0-3.7-0.1-4.9c-0.1-1.3-0.3-2.1-0.6-2.9
		C23.1,3.3,22.6,2.6,22,2c-0.6-0.6-1.3-1.1-2.1-1.4c-0.8-0.3-1.6-0.5-2.9-0.6C15.7,0,15.3,0,12,0L12,0z"/>
	<path d="M12,5.8c-1.2,0-2.4,0.4-3.4,1S6.8,8.5,6.3,9.6C5.8,10.8,5.7,12,6,13.2c0.2,1.2,0.8,2.3,1.7,3.2c0.9,0.9,2,1.4,3.2,1.7
		c1.2,0.2,2.4,0.1,3.6-0.4c1.1-0.5,2.1-1.3,2.8-2.3c0.7-1,1-2.2,1-3.4c0-1.6-0.6-3.2-1.8-4.4C15.2,6.5,13.6,5.8,12,5.8z M12,16
		c-0.8,0-1.6-0.2-2.2-0.7c-0.7-0.4-1.2-1.1-1.5-1.8C8,12.8,7.9,12,8.1,11.2c0.2-0.8,0.5-1.5,1.1-2c0.6-0.6,1.3-0.9,2-1.1
		C12,7.9,12.8,8,13.5,8.3c0.7,0.3,1.4,0.8,1.8,1.5c0.4,0.7,0.7,1.4,0.7,2.2c0,1.1-0.4,2.1-1.2,2.8C14.1,15.6,13.1,16,12,16z"/>
	<path d="M18.4,7c0.8,0,1.4-0.6,1.4-1.4s-0.6-1.4-1.4-1.4c-0.8,0-1.4,0.6-1.4,1.4S17.6,7,18.4,7z"/>
</g>
</svg>
