<?xml version="1.0" encoding="utf-8"?>
<!-- Generator: Adobe Illustrator 24.0.1, SVG Export Plug-In . SVG Version: 6.00 Build 0)  -->
<svg version="1.1" id="Слой_1" xmlns="http://www.w3.org/2000/svg" xmlns:xlink="http://www.w3.org/1999/xlink" x="0px" y="0px"
	 viewBox="0 0 24 24" enable-background="new 0 0 24 24" xml:space="preserve">
<g>
	<defs>
		<rect id="SVGID_1_" width="24" height="24"/>
	</defs>
	<clipPath id="SVGID_2_">
		<use xlink:href="#SVGID_1_"  overflow="visible"/>
	</clipPath>
	<g clip-path="url(#SVGID_2_)">
		<path fill="#0077B7" d="M21.8,0H2.2C1,0,0,1,0,2.2v19.7C0,23,1,24,2.2,24h19.7c1.2,0,2.2-1,2.2-2.2V2.2C24,1,23,0,21.8,0z
			 M7.4,20.7c0,0.3-0.3,0.6-0.6,0.6H4.1c-0.3,0-0.6-0.3-0.6-0.6V9.4c0-0.3,0.3-0.6,0.6-0.6h2.7c0.3,0,0.6,0.3,0.6,0.6V20.7z
			 M5.5,7.8C4,7.8,2.9,6.6,2.9,5.2c0-1.4,1.1-2.6,2.6-2.6S8,3.8,8,5.2C8,6.6,6.9,7.8,5.5,7.8z M21.5,20.8c0,0.3-0.3,0.6-0.6,0.6H18
			c-0.3,0-0.6-0.3-0.6-0.6v-5.3c0-0.8,0.2-3.5-2.1-3.5c-1.8,0-2.1,1.8-2.2,2.6v6.1c0,0.3-0.3,0.6-0.6,0.6H9.8
			c-0.3,0-0.6-0.3-0.6-0.6V9.4c0-0.3,0.3-0.6,0.6-0.6h2.8c0.3,0,0.6,0.3,0.6,0.6v1c0.7-1,1.6-1.8,3.7-1.8c4.6,0,4.6,4.3,4.6,6.7
			V20.8z"/>
	</g>
</g>
</svg>
