<?xml version="1.0" encoding="utf-8"?>
<!-- Generator: Adobe Illustrator 24.0.1, SVG Export Plug-In . SVG Version: 6.00 Build 0)  -->
<svg version="1.1" id="Слой_1" xmlns="http://www.w3.org/2000/svg" xmlns:xlink="http://www.w3.org/1999/xlink" x="0px" y="0px"
	 viewBox="0 0 512 512" enable-background="new 0 0 512 512" xml:space="preserve">
<path d="M384,128h-76.8c-14.1,0-25.6,11.5-25.6,25.6c0,14.1,11.5,25.6,25.6,25.6H384c42.2,0,76.8,34.6,76.8,76.8
	s-34.6,76.8-76.8,76.8h-76.8c-14.1,0-25.6,11.5-25.6,25.6s11.5,25.6,25.6,25.6H384c70.7,0,128-57.3,128-128S454.7,128,384,128z
	 M153.6,256c0,14.1,11.5,25.6,25.6,25.6h153.6c14.1,0,25.6-11.5,25.6-25.6c0-14.1-11.5-25.6-25.6-25.6H179.2
	C165.1,230.4,153.6,241.9,153.6,256z M204.8,332.8H128c-42.2,0-76.8-34.6-76.8-76.8s34.6-76.8,76.8-76.8h76.8
	c14.1,0,25.6-11.5,25.6-25.6c0-14.1-11.5-25.6-25.6-25.6H128C57.3,128,0,185.3,0,256s57.3,128,128,128h76.8
	c14.1,0,25.6-11.5,25.6-25.6S218.9,332.8,204.8,332.8z"/>
</svg>
