<?xml version="1.0" encoding="utf-8"?>
<!-- Generator: Adobe Illustrator 24.0.1, SVG Export Plug-In . SVG Version: 6.00 Build 0)  -->
<svg version="1.1" id="Слой_1" xmlns="http://www.w3.org/2000/svg" xmlns:xlink="http://www.w3.org/1999/xlink" x="0px" y="0px"
	 viewBox="0 0 512 512" enable-background="new 0 0 512 512" xml:space="preserve">
<path stroke="#A8A2A2" stroke-width="0.3" d="M109.5,260.9l0.2-0.1l-0.2-0.2c-12.4-10.8-22.4-24.1-29.2-39
	C73.5,206.7,70,190.4,70,174c0-30.9,12.3-60.5,34.1-82.3c21.8-21.8,51.5-34.1,82.3-34.1s60.5,12.3,82.3,34.1
	c21.8,21.8,34.1,51.5,34.1,82.3c0,16.4-3.5,32.7-10.4,47.6c-6.8,14.9-16.8,28.3-29.2,39l0.1,0.1l-0.1,0.1
	c32.6,14.8,60.3,38.6,79.7,68.7c19.4,30.1,29.8,65.1,29.8,100.9c0,6.1-2.4,12-6.8,16.4c-4.3,4.3-10.2,6.8-16.4,6.8
	c-6.1,0-12-2.4-16.4-6.8c-4.3-4.3-6.8-10.2-6.8-16.4c0-37.1-14.8-72.8-41-99c-26.3-26.3-61.9-41-99-41s-72.8,14.8-99,41
	c-26.3,26.3-41,61.9-41,99c0,6.1-2.4,12-6.8,16.4c-4.3,4.3-10.2,6.8-16.4,6.8s-12-2.4-16.4-6.8C2.4,442.5,0,436.6,0,430.5
	c0-35.8,10.4-70.8,29.8-100.9C49.2,299.5,76.9,275.6,109.5,260.9z M360.2,273.9L360.2,273.9c-3.3-2.2-6-5.1-7.8-8.6
	c-1.8-3.5-2.7-7.4-2.6-11.3c0.1-4,1.2-7.8,3.3-11.2c2-3.4,4.9-6.2,8.3-8.2l-0.1-0.1l0.1,0.1c10.6-6.1,19.5-15,25.6-25.6
	c6.2-10.6,9.4-22.7,9.4-34.9c0-18.6-7.4-36.4-20.5-49.6c-13.1-13.1-31-20.5-49.6-20.5c-6.1,0-12-2.4-16.4-6.8
	c-4.3-4.3-6.8-10.2-6.8-16.4s2.4-12,6.8-16.4c4.3-4.3,10.2-6.8,16.4-6.8c22.4,0,44.4,6.5,63.3,18.7c18.8,12.2,33.8,29.6,43,50
	c9.2,20.5,12.3,43.2,8.9,65.4c-3.4,22.2-13.1,42.9-28,59.7l0.1,0.1l-0.1,0.1c30.3,19,55.3,45.3,72.5,76.7
	c17.3,31.3,26.2,66.5,26,102.3c0,6.1-2.4,12-6.8,16.4c-4.3,4.3-10.2,6.8-16.4,6.8c-6.1,0-12-2.4-16.4-6.8
	c-4.3-4.3-6.8-10.2-6.8-16.4c0.2-31.1-8.4-61.7-25-88.1c-16.5-26.4-40.3-47.5-68.4-60.8c0,0,0,0,0,0l-3-1.6L360.2,273.9z
	 M147.4,232.3c11.5,7.7,25.1,11.8,38.9,11.8c18.6,0,36.4-7.4,49.6-20.5c13.1-13.1,20.5-31,20.5-49.6c0-13.9-4.1-27.4-11.8-38.9
	c-7.7-11.5-18.7-20.5-31.5-25.8c-12.8-5.3-26.9-6.7-40.5-4c-13.6,2.7-26.1,9.4-35.9,19.2c-9.8,9.8-16.5,22.3-19.2,35.9
	c-2.7,13.6-1.3,27.7,4,40.5C126.9,213.6,135.9,224.6,147.4,232.3z"/>
</svg>
