<?xml version="1.0" encoding="utf-8"?>
<!-- Generator: Adobe Illustrator 24.0.1, SVG Export Plug-In . SVG Version: 6.00 Build 0)  -->
<svg version="1.1" id="Слой_1" xmlns="http://www.w3.org/2000/svg" xmlns:xlink="http://www.w3.org/1999/xlink" x="0px" y="0px"
	 viewBox="0 0 512 512" enable-background="new 0 0 512 512" xml:space="preserve">
<g>
	<path stroke="#000000" stroke-width="0.2" d="M387.4,132.8c-6.9-2.4-14.2-3.6-21.6-3.7c0-0.2,0-0.5,0-0.7c0-0.3,0-0.7,0-1
		c0-6.8-0.2-13.9-0.5-20.9C365.1,98.9,359,93,351.5,93h-221c-7.4,0-13.5,5.9-13.8,13.5c-0.3,7-0.5,14.1-0.5,20.9c0,0.4,0,0.7,0,1.1
		c0,0.2,0,0.4,0,0.6c-7.4,0-14.6,1.2-21.6,3.7c-38.6,13.4-58,60.1-43.3,104c5.8,17.2,16,31.9,29.5,42.6
		c13.4,10.6,29.6,16.4,45.5,16.4c7.4,0,14.7-1.2,21.7-3.7c0.2-0.1,0.4-0.2,0.7-0.2c0.1,0,0.3-0.1,0.4-0.1c0.1,0.2,0.2,0.4,0.3,0.6
		c0.3,0.5,0.5,1.1,0.8,1.6c14.3,29.1,31.8,50.3,51.3,62.4v76.1H169c-13.7,0-24.8,11.3-24.8,25.2v29.1c0,13.9,11.1,25.2,24.8,25.2
		h144.2c13.7,0,24.8-11.3,24.8-25.2v-29.1c0-13.9-11.1-25.2-24.8-25.2h-32.5v-76.1c19.5-12.1,37.1-33.2,51.3-62.4
		c0.3-0.6,0.5-1.1,0.8-1.7c0.1-0.2,0.2-0.4,0.3-0.6c0.1,0,0.3,0.1,0.4,0.1c0.2,0.1,0.4,0.2,0.7,0.2c7,2.4,14.3,3.7,21.7,3.7l0,0l0,0
		c15.9,0,32-5.8,45.5-16.4c13.6-10.7,23.8-25.4,29.5-42.6C445.4,192.8,426,146.2,387.4,132.8z M126.4,267.5
		c-20.8,0-40.9-16.4-48.8-39.9c-9.8-29.2,1.9-59.8,26-68.2c4.1-1.4,8.4-2.1,12.7-2.1c0.2,0,0.4,0,0.6,0c0.1,0,0.2,0,0.3,0
		c2.4,39.2,9.7,76.3,21.2,108.3C134.5,266.9,130.5,267.5,126.4,267.5z M310.2,460.7v23.1H171.9v-23.1H310.2z M229.2,432.4V367
		c3.9,0.7,7.8,1,11.8,1s7.9-0.4,11.8-1v65.4H229.2z M307.1,281.3c-18.2,37.2-42.3,58.6-66.1,58.6c-23.7,0-47.8-21.3-66.1-58.6
		c-20-40.9-31-95.5-31-153.9c0-2,0-4.1,0-6.2H338c0,2.1,0,4.1,0,6.2C338.1,185.8,327.1,240.5,307.1,281.3z M404.4,227.6
		c-7.9,23.5-27.9,39.9-48.8,39.9c-4.1,0-8.1-0.6-11.9-1.9c11.5-32,18.7-69.1,21.2-108.3c0.1,0,0.2,0,0.2,0c0.2,0,0.4,0,0.6,0
		c4.3,0,8.6,0.7,12.7,2.1C402.5,167.9,414.2,198.4,404.4,227.6z"/>
	<path stroke="#000000" stroke-width="0.3" d="M23.3,360.8l46.4,11.6l11.6,46.4h0.3l11.6-46.4l46.4-11.6v-0.3l-46.4-11.6l-11.6-46.4
		h-0.3l-11.6,46.4l-46.4,11.6C23.3,360.5,23.3,360.8,23.3,360.8z"/>
	<path stroke="#000000" stroke-width="0.3" d="M372.3,58.3L418.7,70l11.6,46.4h0.3L442.3,70l46.4-11.6v-0.3l-46.4-11.6L430.6,0h-0.3
		l-11.6,46.4L372.3,58L372.3,58.3L372.3,58.3z"/>
</g>
</svg>
