<?xml version="1.0" encoding="utf-8"?>
<!-- Generator: Adobe Illustrator 24.0.1, SVG Export Plug-In . SVG Version: 6.00 Build 0)  -->
<svg version="1.1" id="Слой_1" xmlns="http://www.w3.org/2000/svg" xmlns:xlink="http://www.w3.org/1999/xlink" x="0px" y="0px"
	 viewBox="0 0 512 512" enable-background="new 0 0 512 512" xml:space="preserve">
<path d="M128,256c0,14.1,11.5,25.6,25.6,25.6h204.8c14.1,0,25.6-11.5,25.6-25.6c0-14.1-11.5-25.6-25.6-25.6H153.6
	C139.5,230.4,128,241.9,128,256z M256,0C114.7,0,0,114.7,0,256s114.7,256,256,256s256-114.7,256-256S397.3,0,256,0z M256,460.8
	c-112.9,0-204.8-91.9-204.8-204.8S143.1,51.2,256,51.2S460.8,143.1,460.8,256S368.9,460.8,256,460.8z"/>
</svg>
