<?xml version="1.0" encoding="utf-8"?>
<!-- Generator: Adobe Illustrator 24.0.1, SVG Export Plug-In . SVG Version: 6.00 Build 0)  -->
<svg version="1.1" id="Слой_1" xmlns="http://www.w3.org/2000/svg" xmlns:xlink="http://www.w3.org/1999/xlink" x="0px" y="0px"
	 viewBox="0 0 512 512" enable-background="new 0 0 512 512" xml:space="preserve">
<path d="M248,475.2l-23.7-23.7c-32.5-32.5-32.2-85.3,0.6-117.2l23.1-22.6c-10.7-1.1-18.7-1.7-27.5-1.7
	C147,310.1,0.3,346.9,0.3,420.1v55H248z M220.4,255c60.8,0,110.1-49.3,110.1-110.1S281.3,34.9,220.4,34.9S110.4,84.1,110.4,145
	S159.6,255,220.4,255z"/>
<path d="M363,469.1c-10.7,10.7-28.3,10.7-39.1,0l-57-57.5c-10.5-10.7-10.5-27.8,0-38.2l0.3-0.3c10.7-10.7,28.1-10.7,38.5,0
	l37.7,37.7l121.9-122.7c10.7-10.7,28.1-10.7,38.8,0l0.3,0.3c10.5,10.7,10.5,27.8,0,38.2L363,469.1z"/>
</svg>
