<?xml version="1.0" encoding="utf-8"?>
<!-- Generator: Adobe Illustrator 24.0.1, SVG Export Plug-In . SVG Version: 6.00 Build 0)  -->
<svg version="1.1" id="Слой_1" xmlns="http://www.w3.org/2000/svg" xmlns:xlink="http://www.w3.org/1999/xlink" x="0px" y="0px"
	 viewBox="0 0 512 512" enable-background="new 0 0 512 512" xml:space="preserve">
<path d="M484.8,175.1L340,162.5L283.5,29.4c-10.2-24.2-44.9-24.2-55,0l-56.5,133.4L27.4,175.1c-26.3,2.1-37.1,35-17,52.3l109.8,95.1
	L87.3,463.7c-6,25.7,21.8,46.1,44.6,32.3L256,421.3l124.1,75.1c22.7,13.8,50.6-6.6,44.6-32.3l-32.9-141.5l109.8-95.1
	C521.6,210.1,511.1,177.2,484.8,175.1z M256,365.3l-112.5,67.9l29.9-128L74.1,219l131-11.4L256,87.1L307.1,208l131,11.4l-99.3,86.1
	l29.9,128L256,365.3z"/>
</svg>
