<?xml version="1.0" encoding="utf-8"?>
<!-- Generator: Adobe Illustrator 24.0.1, SVG Export Plug-In . SVG Version: 6.00 Build 0)  -->
<svg version="1.1" id="Слой_1" xmlns="http://www.w3.org/2000/svg" xmlns:xlink="http://www.w3.org/1999/xlink" x="0px" y="0px"
	 viewBox="0 0 512 512" enable-background="new 0 0 512 512" xml:space="preserve">
<path d="M307.2,114.7V63.5H204.8v51.2H307.2z M51.2,191.5v230.4c0,14.1,11.5,25.6,25.6,25.6h358.4c14.1,0,25.6-11.5,25.6-25.6V191.5
	c0-14.1-11.5-25.6-25.6-25.6H76.8C62.7,165.9,51.2,177.4,51.2,191.5z M460.8,114.7c28.4,0,51.2,22.8,51.2,51.2v281.6
	c0,28.4-22.8,51.2-51.2,51.2H51.2C22.8,498.7,0,475.9,0,447.5l0.3-281.6c0-28.4,22.5-51.2,50.9-51.2h102.4V63.5
	c0-28.4,22.8-51.2,51.2-51.2h102.4c28.4,0,51.2,22.8,51.2,51.2v51.2H460.8z"/>
</svg>
