<?xml version="1.0" encoding="utf-8"?>
<!-- Generator: Adobe Illustrator 24.0.1, SVG Export Plug-In . SVG Version: 6.00 Build 0)  -->
<svg version="1.1" id="Слой_1" xmlns="http://www.w3.org/2000/svg" xmlns:xlink="http://www.w3.org/1999/xlink" x="0px" y="0px"
	 viewBox="0 0 512 512" enable-background="new 0 0 512 512" xml:space="preserve">
<path d="M301.3,60.1l-21.7-43.7c-5.1-10.2-15.7-16.6-27.1-16.6H60.3C43.8-0.1,30.2,13.4,30.2,30v451.8c0,16.6,13.6,30.1,30.1,30.1
	c16.6,0,30.1-13.6,30.1-30.1V301H241l21.7,43.7c5.1,10.2,15.7,16.6,26.8,16.6h162.3c16.6,0,30.1-13.6,30.1-30.1V90.2
	c0-16.6-13.6-30.1-30.1-30.1H301.3z M421.7,301H301.3l-30.1-60.2H90.4V60.1H241l30.1,60.2h150.6V301z"/>
</svg>
