<?xml version="1.0" encoding="utf-8"?>
<!-- Generator: Adobe Illustrator 24.0.1, SVG Export Plug-In . SVG Version: 6.00 Build 0)  -->
<svg version="1.1" id="Слой_1" xmlns="http://www.w3.org/2000/svg" xmlns:xlink="http://www.w3.org/1999/xlink" x="0px" y="0px"
	 viewBox="0 0 512 512" enable-background="new 0 0 512 512" xml:space="preserve">
<path d="M255.9-0.1C114.6-0.1,0.1,114.6,0.1,255.9c0,141.3,114.4,256,255.7,256c141.6,0,256.3-114.7,256.3-256
	C512.1,114.6,397.4-0.1,255.9-0.1z M433.3,153.5h-75.5c-8.2-32-20-62.7-35.3-91.1C369.5,78.5,408.7,111.3,433.3,153.5z M256.1,52.1
	c21.2,30.7,37.9,64.8,48.9,101.4h-97.8C218.2,116.9,234.9,82.9,256.1,52.1z M58,307.1c-4.1-16.4-6.7-33.5-6.7-51.2
	c0-17.7,2.6-34.8,6.7-51.2h86.5c-2,16.9-3.6,33.8-3.6,51.2c0,17.4,1.5,34.3,3.6,51.2H58z M79,358.3h75.5c8.2,32,20,62.7,35.3,91.1
	C142.7,433.3,103.6,400.8,79,358.3L79,358.3z M154.5,153.5H79c24.6-42.5,63.7-75,110.8-91.1C174.5,90.8,162.7,121.5,154.5,153.5
	L154.5,153.5z M256.1,459.7c-21.2-30.7-37.9-64.8-48.9-101.4H305C294,394.9,277.4,429,256.1,459.7z M316,307.1H196.2
	c-2.3-16.9-4.1-33.8-4.1-51.2c0-17.4,1.8-34.6,4.1-51.2H316c2.3,16.6,4.1,33.8,4.1,51.2C320.1,273.3,318.3,290.2,316,307.1z
	 M322.4,449.4c15.4-28.4,27.1-59.1,35.3-91.1h75.5C408.7,400.6,369.5,433.3,322.4,449.4L322.4,449.4z M367.8,307.1
	c2-16.9,3.6-33.8,3.6-51.2c0-17.4-1.5-34.3-3.6-51.2h86.5c4.1,16.4,6.7,33.5,6.7,51.2c0,17.7-2.6,34.8-6.7,51.2H367.8z"/>
</svg>
