<?xml version="1.0" encoding="utf-8"?>
<!-- Generator: Adobe Illustrator 24.0.1, SVG Export Plug-In . SVG Version: 6.00 Build 0)  -->
<svg version="1.1" id="Слой_1" xmlns="http://www.w3.org/2000/svg" xmlns:xlink="http://www.w3.org/1999/xlink" x="0px" y="0px"
	 viewBox="0 0 512 512" enable-background="new 0 0 512 512" xml:space="preserve">
<path d="M29.3,291.4C25.8,163,128.7,57.8,256.4,57.8V12.7c0-11.4,13.6-16.9,21.4-8.8l70.6,70.4c5,5,5,12.9,0,17.9l-70.6,70.4
	c-7.8,8.1-21.4,2.3-21.4-8.8v-45.4c-98.4,0-177.9,80.2-176.6,179.1c1.3,93.8,80.2,172.8,174.1,174.1
	c98.6,1.3,179.1-78.2,179.1-176.6c0-40.6-13.9-78.2-37.3-108c-7.8-10.1-7.1-24.2,2-33.3c10.8-10.6,28.5-9.8,37.8,2
	c30,38.3,47.9,86.8,47.9,139.3c0,127.4-105.2,230.6-233.6,227.1C131.5,508.6,32.6,409.7,29.3,291.4z"/>
</svg>
