<?xml version="1.0" encoding="utf-8"?>
<!-- Generator: Adobe Illustrator 24.0.1, SVG Export Plug-In . SVG Version: 6.00 Build 0)  -->
<svg version="1.1" id="Слой_1" xmlns="http://www.w3.org/2000/svg" xmlns:xlink="http://www.w3.org/1999/xlink" x="0px" y="0px"
	 width="512px" height="512px" viewBox="0 0 512 512" enable-background="new 0 0 512 512" xml:space="preserve">
<path d="M255.5-0.3C114.2-0.3-0.2,114.4-0.2,255.7c0,141.3,114.4,256,255.7,256c141.6,0,256.3-114.7,256.3-256
	C511.8,114.4,397.1-0.3,255.5-0.3z M433,153.3h-75.5c-8.2-32-20-62.7-35.3-91.1C369.2,78.3,408.4,111,433,153.3z M255.8,51.9
	c21.2,30.7,37.9,64.8,48.9,101.4h-97.8C217.9,116.7,234.6,82.6,255.8,51.9z M57.7,306.9c-4.1-16.4-6.7-33.5-6.7-51.2
	c0-17.7,2.6-34.8,6.7-51.2h86.5c-2,16.9-3.6,33.8-3.6,51.2s1.5,34.3,3.6,51.2H57.7z M78.6,358.1h75.5c8.2,32,20,62.7,35.3,91.1
	C142.4,433.1,103.2,400.6,78.6,358.1L78.6,358.1z M154.2,153.3H78.6c24.6-42.5,63.7-75,110.8-91.1
	C174.1,90.6,162.4,121.3,154.2,153.3L154.2,153.3z M255.8,459.5c-21.2-30.7-37.9-64.8-48.9-101.4h97.8
	C293.7,394.7,277,428.7,255.8,459.5z M315.7,306.9H195.9c-2.3-16.9-4.1-33.8-4.1-51.2s1.8-34.6,4.1-51.2h119.8
	c2.3,16.6,4.1,33.8,4.1,51.2S318,290,315.7,306.9z M322.1,449.2c15.4-28.4,27.1-59.1,35.3-91.1H433
	C408.4,400.3,369.2,433.1,322.1,449.2L322.1,449.2z M367.4,306.9c2-16.9,3.6-33.8,3.6-51.2s-1.5-34.3-3.6-51.2h86.5
	c4.1,16.4,6.7,33.5,6.7,51.2c0,17.7-2.6,34.8-6.7,51.2H367.4z"/>
</svg>
