<?xml version="1.0" encoding="utf-8"?>
<!-- Generator: Adobe Illustrator 24.0.1, SVG Export Plug-In . SVG Version: 6.00 Build 0)  -->
<svg version="1.1" id="Слой_1" xmlns="http://www.w3.org/2000/svg" xmlns:xlink="http://www.w3.org/1999/xlink" x="0px" y="0px"
	 viewBox="0 0 512 512" enable-background="new 0 0 512 512" xml:space="preserve">
<path fill-rule="evenodd" clip-rule="evenodd" d="M321.9,374.7c-33.1,22.8-73.2,36.2-116.4,36.2C92,410.9,0,318.9,0,205.4
	C0,92,92,0,205.4,0c113.5,0,205.4,92,205.4,205.4c0,43.2-13.4,83.4-36.2,116.4L512,459.2L459.2,512L321.9,374.7z M205.5,336.2
	c72.2,0,130.7-58.5,130.7-130.7c0-72.2-58.5-130.7-130.7-130.7c-72.2,0-130.7,58.5-130.7,130.7C74.7,277.6,133.3,336.2,205.5,336.2z
	"/>
</svg>
