<?xml version="1.0" encoding="utf-8"?><svg xmlns="http://www.w3.org/2000/svg" xmlns:xlink="http://www.w3.org/1999/xlink"><symbol viewBox="0 0 512 512" id="icon-badge" xmlns="http://www.w3.org/2000/svg"><path d="M237 4.1l-164.3 73c-16.9 7.5-27.9 24.4-27.9 43v110.3c0 130.3 90.1 252.1 211.3 281.7 121.1-29.6 211.3-151.4 211.3-281.7V120.1c0-18.5-11-35.4-27.9-43L275 4.1c-12-5.4-26-5.4-38 0zm-44.6 350.5l-60.8-60.8c-9.2-9.2-9.2-23.9 0-33.1 9.2-9.2 23.9-9.2 33.1 0l44.4 44.1 138-138c9.2-9.2 23.9-9.2 33.1 0 9.2 9.2 9.2 23.9 0 33.1L225.5 354.6c-8.9 9.1-24 9.1-33.1 0z"/></symbol><symbol viewBox="0 0 512 512" id="icon-flag" xmlns="http://www.w3.org/2000/svg"><path d="M301.3 60.1l-21.7-43.7C274.5 6.2 263.9-.2 252.5-.2H60.3C43.8-.1 30.2 13.4 30.2 30v451.8c0 16.6 13.6 30.1 30.1 30.1 16.6 0 30.1-13.6 30.1-30.1V301H241l21.7 43.7c5.1 10.2 15.7 16.6 26.8 16.6h162.3c16.6 0 30.1-13.6 30.1-30.1v-241c0-16.6-13.6-30.1-30.1-30.1H301.3zM421.7 301H301.3l-30.1-60.2H90.4V60.1H241l30.1 60.2h150.6V301z"/></symbol><symbol viewBox="0 0 512 512" id="icon-load" xmlns="http://www.w3.org/2000/svg"><path d="M29.3 291.4C25.8 163 128.7 57.8 256.4 57.8V12.7c0-11.4 13.6-16.9 21.4-8.8l70.6 70.4c5 5 5 12.9 0 17.9l-70.6 70.4c-7.8 8.1-21.4 2.3-21.4-8.8v-45.4c-98.4 0-177.9 80.2-176.6 179.1 1.3 93.8 80.2 172.8 174.1 174.1C352.5 462.9 433 383.4 433 285c0-40.6-13.9-78.2-37.3-108-7.8-10.1-7.1-24.2 2-33.3 10.8-10.6 28.5-9.8 37.8 2 30 38.3 47.9 86.8 47.9 139.3 0 127.4-105.2 230.6-233.6 227.1-118.3-3.5-217.2-102.4-220.5-220.7z"/></symbol><symbol viewBox="0 0 512 512" id="icon-search" xmlns="http://www.w3.org/2000/svg"><path fill-rule="evenodd" clip-rule="evenodd" d="M321.9 374.7c-33.1 22.8-73.2 36.2-116.4 36.2C92 410.9 0 318.9 0 205.4 0 92 92 0 205.4 0c113.5 0 205.4 92 205.4 205.4 0 43.2-13.4 83.4-36.2 116.4L512 459.2 459.2 512 321.9 374.7zm-116.4-38.5c72.2 0 130.7-58.5 130.7-130.7 0-72.2-58.5-130.7-130.7-130.7-72.2 0-130.7 58.5-130.7 130.7-.1 72.1 58.5 130.7 130.7 130.7z"/></symbol><symbol viewBox="0 0 512 512" id="icon-site" xmlns="http://www.w3.org/2000/svg"><path d="M255.9-.1C114.6-.1.1 114.6.1 255.9s114.4 256 255.7 256c141.6 0 256.3-114.7 256.3-256S397.4-.1 255.9-.1zm177.4 153.6h-75.5c-8.2-32-20-62.7-35.3-91.1 47 16.1 86.2 48.9 110.8 91.1zM256.1 52.1c21.2 30.7 37.9 64.8 48.9 101.4h-97.8c11-36.6 27.7-70.6 48.9-101.4zM58 307.1c-4.1-16.4-6.7-33.5-6.7-51.2 0-17.7 2.6-34.8 6.7-51.2h86.5c-2 16.9-3.6 33.8-3.6 51.2 0 17.4 1.5 34.3 3.6 51.2H58zm21 51.2h75.5c8.2 32 20 62.7 35.3 91.1-47.1-16.1-86.2-48.6-110.8-91.1zm75.5-204.8H79c24.6-42.5 63.7-75 110.8-91.1-15.3 28.4-27.1 59.1-35.3 91.1zm101.6 306.2c-21.2-30.7-37.9-64.8-48.9-101.4H305c-11 36.6-27.6 70.7-48.9 101.4zM316 307.1H196.2c-2.3-16.9-4.1-33.8-4.1-51.2 0-17.4 1.8-34.6 4.1-51.2H316c2.3 16.6 4.1 33.8 4.1 51.2 0 17.4-1.8 34.3-4.1 51.2zm6.4 142.3c15.4-28.4 27.1-59.1 35.3-91.1h75.5c-24.5 42.3-63.7 75-110.8 91.1zm45.4-142.3c2-16.9 3.6-33.8 3.6-51.2 0-17.4-1.5-34.3-3.6-51.2h86.5c4.1 16.4 6.7 33.5 6.7 51.2 0 17.7-2.6 34.8-6.7 51.2h-86.5z"/></symbol></svg>