<?xml version="1.0" encoding="utf-8"?><svg xmlns="http://www.w3.org/2000/svg" xmlns:xlink="http://www.w3.org/1999/xlink"><symbol viewBox="0 0 512 512" id="icon-site" xmlns="http://www.w3.org/2000/svg"><path d="M255.5-.3C114.2-.3-.2 114.4-.2 255.7s114.4 256 255.7 256c141.6 0 256.3-114.7 256.3-256S397.1-.3 255.5-.3zM433 153.3h-75.5c-8.2-32-20-62.7-35.3-91.1 47 16.1 86.2 48.8 110.8 91.1zM255.8 51.9c21.2 30.7 37.9 64.8 48.9 101.4h-97.8c11-36.6 27.7-70.7 48.9-101.4zm-198.1 255c-4.1-16.4-6.7-33.5-6.7-51.2 0-17.7 2.6-34.8 6.7-51.2h86.5c-2 16.9-3.6 33.8-3.6 51.2s1.5 34.3 3.6 51.2H57.7zm20.9 51.2h75.5c8.2 32 20 62.7 35.3 91.1-47-16.1-86.2-48.6-110.8-91.1zm75.6-204.8H78.6c24.6-42.5 63.7-75 110.8-91.1-15.3 28.4-27 59.1-35.2 91.1zm101.6 306.2c-21.2-30.7-37.9-64.8-48.9-101.4h97.8c-11 36.6-27.7 70.6-48.9 101.4zm59.9-152.6H195.9c-2.3-16.9-4.1-33.8-4.1-51.2s1.8-34.6 4.1-51.2h119.8c2.3 16.6 4.1 33.8 4.1 51.2s-1.8 34.3-4.1 51.2zm6.4 142.3c15.4-28.4 27.1-59.1 35.3-91.1H433c-24.6 42.2-63.8 75-110.9 91.1zm45.3-142.3c2-16.9 3.6-33.8 3.6-51.2s-1.5-34.3-3.6-51.2h86.5c4.1 16.4 6.7 33.5 6.7 51.2 0 17.7-2.6 34.8-6.7 51.2h-86.5z"/></symbol></svg>