<?xml version="1.0" encoding="utf-8"?><svg xmlns="http://www.w3.org/2000/svg" xmlns:xlink="http://www.w3.org/1999/xlink"><symbol viewBox="0 0 24 24" id="icon-dev" xmlns="http://www.w3.org/2000/svg"><path d="M6.4 9.4c-.2-.1-.4-.2-.6-.2h-.9v5.6h.9c.2 0 .4-.1.6-.2.2-.2.3-.4.3-.7v-3.7c0-.4-.1-.6-.3-.8zM21.6 0H2.4C1.1 0 0 1 0 2.3v19.3C0 23 1.1 24 2.4 24h19.3c1.3 0 2.3-1 2.4-2.3V2.3C24 1 22.9 0 21.6 0zM8.3 13.9c0 1-.6 2.5-2.6 2.5H3.2V7.6h2.5c1.9 0 2.5 1.5 2.5 2.5l.1 3.8zm5.4-4.8h-2.9v2.1h1.7v1.6h-1.7v2.1h2.9v1.6h-3.3c-.6 0-1.1-.5-1.1-1.1V8.7c0-.6.5-1.1 1.1-1.1h3.4l-.1 1.5zm5.5 6.2c-.7 1.6-2 1.3-2.5 0l-2.1-7.8h1.7l1.6 6.1 1.6-6.1h1.7l-2 7.8z"/></symbol><symbol viewBox="0 0 512 512" id="icon-facebook" xmlns="http://www.w3.org/2000/svg"><path d="M0 0v512h272.7V314.2H206v-80.7h66.7v-67.8c0-49.3 40-89.3 89.3-89.3h69.7V149h-49.9c-15.7 0-28.4 12.7-28.4 28.4v56.1h77l-10.6 80.7h-66.3V512H512V0H0z"/></symbol><symbol viewBox="0 0 24 24" id="icon-github" xmlns="http://www.w3.org/2000/svg"><path d="M23.3 0H.7C.4 0 .1.3.1.6v22.8c0 .3.3.6.6.6h7.5c.3 0 .6-.2.6-.5V21c-.6 0-1.2.1-1.8.1-1.3-.1-2.2-.6-2.7-1.8-.3-.7-.7-1.4-1.4-1.8l-.3-.3c-.1-.2-.1-.3.1-.3s.4-.1.6 0c.8.2 1.4.7 1.8 1.3.8 1.3 2.1 1.7 3.6 1.1.1 0 .2-.1.2-.2.1-.6.3-1.1.8-1.6-.5-.1-.9-.2-1.4-.3-1.3-.3-2.5-.9-3.3-1.9-.7-.9-1-1.9-1.1-3C3.6 10.6 3.8 9 5 7.7c0-.1.1-.2 0-.3-.3-1-.2-1.9 0-2.8.2-.5.3-.6.8-.5h.1c1 .2 1.9.7 2.7 1.2.1.1.3.1.4.1 2-.5 4.1-.5 6.1 0 .1 0 .3 0 .4-.1.5-.2.9-.5 1.4-.8.5-.3 1.1-.5 1.7-.5.1 0 .3.1.3.2.4 1 .5 2 .2 3 0 .1 0 .3.1.4.3.5.7 1 .9 1.6.6 1.7.4 3.5-.4 5.1-.7 1.5-2 2.3-3.6 2.7-.5.1-1.1.2-1.6.3.7.8.9 1.7.8 2.7v3.1c0 .5.2.8.6.8h8V.6c0-.3-.3-.6-.6-.6z"/></symbol><symbol viewBox="0 0 24 24" id="icon-gitlab" xmlns="http://www.w3.org/2000/svg"><path fill="#FC6D26" d="M24 13.6l-1.3-4.1L20 1.3c0-.1-.1-.2-.2-.2-.1-.1-.2-.1-.3-.1-.1 0-.2 0-.3.1l-.2.2-2.7 8.2H7.6L4.9 1.3c0-.1-.1-.2-.2-.2 0-.1-.1-.2-.2-.2s-.2.1-.3.1c-.1.1-.1.2-.2.3L1.4 9.5 0 13.6v.6c.1.2.2.3.3.5L12 23.1l11.6-8.4c.2-.1.3-.3.3-.5.1-.2.1-.4.1-.6z"/><path fill="#E24329" d="M12 23l4.4-13.6H7.6L12 23z"/><path fill="#FC6D26" d="M12 23L7.6 9.4H1.4L12 23z"/><path fill="#FCA326" d="M1.4 9.5L0 13.6v.6c.1.2.2.3.3.5L12 23.1 1.4 9.5z"/><path fill="#E24329" d="M1.4 9.5h6.2L4.9 1.3c0-.1-.1-.2-.2-.2 0-.1-.1-.2-.2-.2s-.2.1-.3.1c-.1.1-.1.2-.2.3L1.4 9.5z"/><path fill="#FC6D26" d="M12 23l4.4-13.6h6.2L12 23z"/><path fill="#FCA326" d="M22.6 9.5l1.3 4.1c.1.2.1.4 0 .6-.1.2-.2.3-.3.5L12 23 22.6 9.5z"/><path fill="#E24329" d="M22.6 9.5h-6.2l2.7-8.2c0-.1.1-.2.2-.2.1-.1.2-.1.3-.1.1 0 .2 0 .3.1l.2.2 2.5 8.2z"/></symbol><symbol viewBox="0 0 24 24" id="icon-instagram" xmlns="http://www.w3.org/2000/svg"><path d="M12 2.2c3.2 0 3.6 0 4.8.1 1.2.1 1.8.2 2.2.4.5.2 1 .5 1.4.9.4.4.7.9.9 1.4.2.4.4 1.1.4 2.2.1 1.3.1 1.6.1 4.8 0 3.2 0 3.6-.1 4.8-.1 1.2-.2 1.8-.4 2.2-.2.5-.5 1-.9 1.4-.4.4-.9.7-1.4.9-.4.2-1.1.4-2.2.4-1.3.1-1.6.1-4.8.1-3.2 0-3.6 0-4.8-.1-1.2-.1-1.8-.2-2.2-.4-.5-.2-1-.5-1.4-.9-.4-.4-.7-.9-.9-1.4-.2-.4-.4-1.1-.4-2.2-.1-1.3-.1-1.6-.1-4.8 0-3.2 0-3.6.1-4.8 0-1.2.2-1.9.3-2.3.2-.5.5-1 .9-1.4.4-.4.9-.7 1.4-.9.4-.1 1.1-.3 2.3-.4H12zM12 0C8.7 0 8.3 0 7.1.1c-1.3 0-2.2.2-3 .5C3.3.9 2.6 1.4 2 2 1.4 2.6.9 3.3.6 4.1c-.3.8-.5 1.7-.5 3C0 8.3 0 8.7 0 12c0 3.3 0 3.7.1 4.9.1 1.3.3 2.1.6 2.9.2.9.7 1.6 1.3 2.2.6.6 1.3 1.1 2.1 1.4.8.3 1.6.5 2.9.6h5c3.3 0 3.7 0 4.9-.1 1.3-.1 2.1-.3 2.9-.6.8-.3 1.5-.8 2.1-1.4.6-.6 1.1-1.3 1.4-2.1.3-.8.5-1.6.6-2.9.1-1.2.1-1.6.1-4.9 0-3.3 0-3.7-.1-4.9-.1-1.3-.3-2.1-.6-2.9-.2-.9-.7-1.6-1.3-2.2-.6-.6-1.3-1.1-2.1-1.4C19.1.3 18.3.1 17 0h-5z"/><path d="M12 5.8c-1.2 0-2.4.4-3.4 1S6.8 8.5 6.3 9.6c-.5 1.2-.6 2.4-.3 3.6.2 1.2.8 2.3 1.7 3.2.9.9 2 1.4 3.2 1.7 1.2.2 2.4.1 3.6-.4 1.1-.5 2.1-1.3 2.8-2.3.7-1 1-2.2 1-3.4 0-1.6-.6-3.2-1.8-4.4-1.3-1.1-2.9-1.8-4.5-1.8zM12 16c-.8 0-1.6-.2-2.2-.7-.7-.4-1.2-1.1-1.5-1.8-.3-.7-.4-1.5-.2-2.3.2-.8.5-1.5 1.1-2 .6-.6 1.3-.9 2-1.1.8-.2 1.6-.1 2.3.2.7.3 1.4.8 1.8 1.5.4.7.7 1.4.7 2.2 0 1.1-.4 2.1-1.2 2.8-.7.8-1.7 1.2-2.8 1.2zM18.4 7c.8 0 1.4-.6 1.4-1.4s-.6-1.4-1.4-1.4c-.8 0-1.4.6-1.4 1.4S17.6 7 18.4 7z"/></symbol><symbol viewBox="0 0 24 24" id="icon-linkedin" xmlns="http://www.w3.org/2000/svg"><defs><path id="fa" d="M0 0h24v24H0z"/></defs><clipPath id="fb"><use xlink:href="#fa" overflow="visible"/></clipPath><g clip-path="url(#fb)"><path fill="#0077B7" d="M21.8 0H2.2C1 0 0 1 0 2.2v19.7C0 23 1 24 2.2 24h19.7c1.2 0 2.2-1 2.2-2.2V2.2C24 1 23 0 21.8 0zM7.4 20.7c0 .3-.3.6-.6.6H4.1c-.3 0-.6-.3-.6-.6V9.4c0-.3.3-.6.6-.6h2.7c.3 0 .6.3.6.6v11.3zM5.5 7.8C4 7.8 2.9 6.6 2.9 5.2c0-1.4 1.1-2.6 2.6-2.6S8 3.8 8 5.2c0 1.4-1.1 2.6-2.5 2.6zm16 13c0 .3-.3.6-.6.6H18c-.3 0-.6-.3-.6-.6v-5.3c0-.8.2-3.5-2.1-3.5-1.8 0-2.1 1.8-2.2 2.6v6.1c0 .3-.3.6-.6.6H9.8c-.3 0-.6-.3-.6-.6V9.4c0-.3.3-.6.6-.6h2.8c.3 0 .6.3.6.6v1c.7-1 1.6-1.8 3.7-1.8 4.6 0 4.6 4.3 4.6 6.7v5.5z"/></g></symbol></svg>