<?xml version="1.0" encoding="utf-8"?><svg xmlns="http://www.w3.org/2000/svg" xmlns:xlink="http://www.w3.org/1999/xlink"><symbol viewBox="0 0 512 512" id="icon-arrow-top" xmlns="http://www.w3.org/2000/svg"><path d="M223.7 118.3L13.4 328.6c-17.9 17.9-17.9 46.7 0 64.6s46.7 17.9 64.6 0l178.2-177.8L434 393.2c17.9 17.9 46.7 17.9 64.6 0s17.9-46.7 0-64.6L288.3 118.3c-17.4-17.9-46.7-17.9-64.6 0z"/></symbol><symbol viewBox="0 0 24 24" id="icon-dev" xmlns="http://www.w3.org/2000/svg"><path d="M6.4 9.4c-.2-.1-.4-.2-.6-.2h-.9v5.6h.9c.2 0 .4-.1.6-.2.2-.2.3-.4.3-.7v-3.7c0-.4-.1-.6-.3-.8zM21.6 0H2.4C1.1 0 0 1 0 2.3v19.3C0 23 1.1 24 2.4 24h19.3c1.3 0 2.3-1 2.4-2.3V2.3C24 1 22.9 0 21.6 0zM8.3 13.9c0 1-.6 2.5-2.6 2.5H3.2V7.6h2.5c1.9 0 2.5 1.5 2.5 2.5l.1 3.8zm5.4-4.8h-2.9v2.1h1.7v1.6h-1.7v2.1h2.9v1.6h-3.3c-.6 0-1.1-.5-1.1-1.1V8.7c0-.6.5-1.1 1.1-1.1h3.4l-.1 1.5zm5.5 6.2c-.7 1.6-2 1.3-2.5 0l-2.1-7.8h1.7l1.6 6.1 1.6-6.1h1.7l-2 7.8z"/></symbol><symbol viewBox="0 0 512 512" id="icon-dou" xmlns="http://www.w3.org/2000/svg"><path d="M0 0h512v512H0z"/><path d="M24.4 176h3.2c8.5 0 36.8-.7 47.3-.7 64 0 89.9 36.8 89.9 79.4 0 44.8-30.6 81.9-91.7 81.9-8.5 0-29.5-.5-44.8-.5h-3.9V176zM61 210.3v91.5c4.8.5 8 .5 13.3.5 31.6 0 51.7-17.2 51.7-47.6 0-29.5-21.7-45.1-51.5-45.1-3.9 0-8.9 0-13.5.7zm197.2-37.1c48.7 0 85.1 31.8 85.1 82.8 0 48.5-36.4 82.8-85.1 82.8S173.1 307 173.1 256c0-46.4 34.1-82.8 85.1-82.8zm0 131.3c30.4 0 46.2-21.5 46.2-48.5 0-29.3-20.4-48.5-46.2-48.5-26.5 0-46.2 19.2-46.2 48.5 0 27.4 20.6 48.5 46.2 48.5zM487.6 270c0 48.9-31.1 68.8-65.4 68.8-41.2 0-69.7-23.6-69.7-70.4V176H389v84.6c0 24.9 7.5 43.9 33.2 43.9 22.2 0 28.8-16.2 28.8-41.9V176h36.6v94z" fill="#FFF"/></symbol><symbol viewBox="0 0 512 512" id="icon-facebook" xmlns="http://www.w3.org/2000/svg"><path d="M0 0v512h272.7V314.2H206v-80.7h66.7v-67.8c0-49.3 40-89.3 89.3-89.3h69.7V149h-49.9c-15.7 0-28.4 12.7-28.4 28.4v56.1h77l-10.6 80.7h-66.3V512H512V0H0z"/></symbol><symbol viewBox="0 0 24 24" id="icon-github" xmlns="http://www.w3.org/2000/svg"><path d="M23.3 0H.7C.4 0 .1.3.1.6v22.8c0 .3.3.6.6.6h7.5c.3 0 .6-.2.6-.5V21c-.6 0-1.2.1-1.8.1-1.3-.1-2.2-.6-2.7-1.8-.3-.7-.7-1.4-1.4-1.8l-.3-.3c-.1-.2-.1-.3.1-.3s.4-.1.6 0c.8.2 1.4.7 1.8 1.3.8 1.3 2.1 1.7 3.6 1.1.1 0 .2-.1.2-.2.1-.6.3-1.1.8-1.6-.5-.1-.9-.2-1.4-.3-1.3-.3-2.5-.9-3.3-1.9-.7-.9-1-1.9-1.1-3C3.6 10.6 3.8 9 5 7.7c0-.1.1-.2 0-.3-.3-1-.2-1.9 0-2.8.2-.5.3-.6.8-.5h.1c1 .2 1.9.7 2.7 1.2.1.1.3.1.4.1 2-.5 4.1-.5 6.1 0 .1 0 .3 0 .4-.1.5-.2.9-.5 1.4-.8.5-.3 1.1-.5 1.7-.5.1 0 .3.1.3.2.4 1 .5 2 .2 3 0 .1 0 .3.1.4.3.5.7 1 .9 1.6.6 1.7.4 3.5-.4 5.1-.7 1.5-2 2.3-3.6 2.7-.5.1-1.1.2-1.6.3.7.8.9 1.7.8 2.7v3.1c0 .5.2.8.6.8h8V.6c0-.3-.3-.6-.6-.6z"/></symbol><symbol viewBox="0 0 24 24" id="icon-gitlab" xmlns="http://www.w3.org/2000/svg"><path fill="#FC6D26" d="M24 13.6l-1.3-4.1L20 1.3c0-.1-.1-.2-.2-.2-.1-.1-.2-.1-.3-.1-.1 0-.2 0-.3.1l-.2.2-2.7 8.2H7.6L4.9 1.3c0-.1-.1-.2-.2-.2 0-.1-.1-.2-.2-.2s-.2.1-.3.1c-.1.1-.1.2-.2.3L1.4 9.5 0 13.6v.6c.1.2.2.3.3.5L12 23.1l11.6-8.4c.2-.1.3-.3.3-.5.1-.2.1-.4.1-.6z"/><path fill="#E24329" d="M12 23l4.4-13.6H7.6L12 23z"/><path fill="#FC6D26" d="M12 23L7.6 9.4H1.4L12 23z"/><path fill="#FCA326" d="M1.4 9.5L0 13.6v.6c.1.2.2.3.3.5L12 23.1 1.4 9.5z"/><path fill="#E24329" d="M1.4 9.5h6.2L4.9 1.3c0-.1-.1-.2-.2-.2 0-.1-.1-.2-.2-.2s-.2.1-.3.1c-.1.1-.1.2-.2.3L1.4 9.5z"/><path fill="#FC6D26" d="M12 23l4.4-13.6h6.2L12 23z"/><path fill="#FCA326" d="M22.6 9.5l1.3 4.1c.1.2.1.4 0 .6-.1.2-.2.3-.3.5L12 23 22.6 9.5z"/><path fill="#E24329" d="M22.6 9.5h-6.2l2.7-8.2c0-.1.1-.2.2-.2.1-.1.2-.1.3-.1.1 0 .2 0 .3.1l.2.2 2.5 8.2z"/></symbol><symbol viewBox="0 0 24 24" id="icon-instagram" xmlns="http://www.w3.org/2000/svg"><path d="M12 2.2c3.2 0 3.6 0 4.8.1 1.2.1 1.8.2 2.2.4.5.2 1 .5 1.4.9.4.4.7.9.9 1.4.2.4.4 1.1.4 2.2.1 1.3.1 1.6.1 4.8 0 3.2 0 3.6-.1 4.8-.1 1.2-.2 1.8-.4 2.2-.2.5-.5 1-.9 1.4-.4.4-.9.7-1.4.9-.4.2-1.1.4-2.2.4-1.3.1-1.6.1-4.8.1-3.2 0-3.6 0-4.8-.1-1.2-.1-1.8-.2-2.2-.4-.5-.2-1-.5-1.4-.9-.4-.4-.7-.9-.9-1.4-.2-.4-.4-1.1-.4-2.2-.1-1.3-.1-1.6-.1-4.8 0-3.2 0-3.6.1-4.8 0-1.2.2-1.9.3-2.3.2-.5.5-1 .9-1.4.4-.4.9-.7 1.4-.9.4-.1 1.1-.3 2.3-.4H12zM12 0C8.7 0 8.3 0 7.1.1c-1.3 0-2.2.2-3 .5C3.3.9 2.6 1.4 2 2 1.4 2.6.9 3.3.6 4.1c-.3.8-.5 1.7-.5 3C0 8.3 0 8.7 0 12c0 3.3 0 3.7.1 4.9.1 1.3.3 2.1.6 2.9.2.9.7 1.6 1.3 2.2.6.6 1.3 1.1 2.1 1.4.8.3 1.6.5 2.9.6h5c3.3 0 3.7 0 4.9-.1 1.3-.1 2.1-.3 2.9-.6.8-.3 1.5-.8 2.1-1.4.6-.6 1.1-1.3 1.4-2.1.3-.8.5-1.6.6-2.9.1-1.2.1-1.6.1-4.9 0-3.3 0-3.7-.1-4.9-.1-1.3-.3-2.1-.6-2.9-.2-.9-.7-1.6-1.3-2.2-.6-.6-1.3-1.1-2.1-1.4C19.1.3 18.3.1 17 0h-5z"/><path d="M12 5.8c-1.2 0-2.4.4-3.4 1S6.8 8.5 6.3 9.6c-.5 1.2-.6 2.4-.3 3.6.2 1.2.8 2.3 1.7 3.2.9.9 2 1.4 3.2 1.7 1.2.2 2.4.1 3.6-.4 1.1-.5 2.1-1.3 2.8-2.3.7-1 1-2.2 1-3.4 0-1.6-.6-3.2-1.8-4.4-1.3-1.1-2.9-1.8-4.5-1.8zM12 16c-.8 0-1.6-.2-2.2-.7-.7-.4-1.2-1.1-1.5-1.8-.3-.7-.4-1.5-.2-2.3.2-.8.5-1.5 1.1-2 .6-.6 1.3-.9 2-1.1.8-.2 1.6-.1 2.3.2.7.3 1.4.8 1.8 1.5.4.7.7 1.4.7 2.2 0 1.1-.4 2.1-1.2 2.8-.7.8-1.7 1.2-2.8 1.2zM18.4 7c.8 0 1.4-.6 1.4-1.4s-.6-1.4-1.4-1.4c-.8 0-1.4.6-1.4 1.4S17.6 7 18.4 7z"/></symbol><symbol viewBox="0 0 512 512" id="icon-link" xmlns="http://www.w3.org/2000/svg"><path d="M384 128h-76.8c-14.1 0-25.6 11.5-25.6 25.6 0 14.1 11.5 25.6 25.6 25.6H384c42.2 0 76.8 34.6 76.8 76.8s-34.6 76.8-76.8 76.8h-76.8c-14.1 0-25.6 11.5-25.6 25.6s11.5 25.6 25.6 25.6H384c70.7 0 128-57.3 128-128s-57.3-128-128-128zM153.6 256c0 14.1 11.5 25.6 25.6 25.6h153.6c14.1 0 25.6-11.5 25.6-25.6 0-14.1-11.5-25.6-25.6-25.6H179.2c-14.1 0-25.6 11.5-25.6 25.6zm51.2 76.8H128c-42.2 0-76.8-34.6-76.8-76.8s34.6-76.8 76.8-76.8h76.8c14.1 0 25.6-11.5 25.6-25.6 0-14.1-11.5-25.6-25.6-25.6H128C57.3 128 0 185.3 0 256s57.3 128 128 128h76.8c14.1 0 25.6-11.5 25.6-25.6s-11.5-25.6-25.6-25.6z"/></symbol><symbol viewBox="0 0 24 24" id="icon-linkedin" xmlns="http://www.w3.org/2000/svg"><defs><path id="ia" d="M0 0h24v24H0z"/></defs><clipPath id="ib"><use xlink:href="#ia" overflow="visible"/></clipPath><g clip-path="url(#ib)"><path fill="#0077B7" d="M21.8 0H2.2C1 0 0 1 0 2.2v19.7C0 23 1 24 2.2 24h19.7c1.2 0 2.2-1 2.2-2.2V2.2C24 1 23 0 21.8 0zM7.4 20.7c0 .3-.3.6-.6.6H4.1c-.3 0-.6-.3-.6-.6V9.4c0-.3.3-.6.6-.6h2.7c.3 0 .6.3.6.6v11.3zM5.5 7.8C4 7.8 2.9 6.6 2.9 5.2c0-1.4 1.1-2.6 2.6-2.6S8 3.8 8 5.2c0 1.4-1.1 2.6-2.5 2.6zm16 13c0 .3-.3.6-.6.6H18c-.3 0-.6-.3-.6-.6v-5.3c0-.8.2-3.5-2.1-3.5-1.8 0-2.1 1.8-2.2 2.6v6.1c0 .3-.3.6-.6.6H9.8c-.3 0-.6-.3-.6-.6V9.4c0-.3.3-.6.6-.6h2.8c.3 0 .6.3.6.6v1c.7-1 1.6-1.8 3.7-1.8 4.6 0 4.6 4.3 4.6 6.7v5.5z"/></g></symbol><symbol viewBox="0 0 512 512" id="icon-pictures" xmlns="http://www.w3.org/2000/svg"><path d="M512 455.1V56.9C512 25.6 486.4 0 455.1 0H56.9C25.6 0 0 25.6 0 56.9v398.2C0 486.4 25.6 512 56.9 512h398.2c31.3 0 56.9-25.6 56.9-56.9zM156.4 298.7l71.1 85.6L327.1 256l128 170.7H56.9l99.5-128z"/></symbol><symbol viewBox="0 0 512 512" id="icon-reviews" xmlns="http://www.w3.org/2000/svg"><path d="M460.8 0H51.2C23 0 0 23 0 51.2V512l102.4-102.4h358.4c28.2 0 51.2-23 51.2-51.2V51.2C512 23 489 0 460.8 0zm-25.6 358.4H102.4l-51.2 51.2V76.8c0-14.1 11.5-25.6 25.6-25.6h358.4c14.1 0 25.6 11.5 25.6 25.6v256c0 14.1-11.5 25.6-25.6 25.6z"/></symbol><symbol viewBox="0 0 512 512" id="icon-selected-person" xmlns="http://www.w3.org/2000/svg"><path d="M248 475.2l-23.7-23.7c-32.5-32.5-32.2-85.3.6-117.2l23.1-22.6c-10.7-1.1-18.7-1.7-27.5-1.7C147 310.1.3 346.9.3 420.1v55H248zM220.4 255c60.8 0 110.1-49.3 110.1-110.1s-49.2-110-110.1-110-110 49.2-110 110.1 49.2 110 110 110zM363 469.1c-10.7 10.7-28.3 10.7-39.1 0l-57-57.5c-10.5-10.7-10.5-27.8 0-38.2l.3-.3c10.7-10.7 28.1-10.7 38.5 0l37.7 37.7 121.9-122.7c10.7-10.7 28.1-10.7 38.8 0l.3.3c10.5 10.7 10.5 27.8 0 38.2L363 469.1z"/></symbol><symbol viewBox="0 0 512 512" id="icon-vacancies" xmlns="http://www.w3.org/2000/svg"><path d="M307.2 114.7V63.5H204.8v51.2h102.4zm-256 76.8v230.4c0 14.1 11.5 25.6 25.6 25.6h358.4c14.1 0 25.6-11.5 25.6-25.6V191.5c0-14.1-11.5-25.6-25.6-25.6H76.8c-14.1 0-25.6 11.5-25.6 25.6zm409.6-76.8c28.4 0 51.2 22.8 51.2 51.2v281.6c0 28.4-22.8 51.2-51.2 51.2H51.2C22.8 498.7 0 475.9 0 447.5l.3-281.6c0-28.4 22.5-51.2 50.9-51.2h102.4V63.5c0-28.4 22.8-51.2 51.2-51.2h102.4c28.4 0 51.2 22.8 51.2 51.2v51.2h102.4z"/></symbol></svg>