<?xml version="1.0" encoding="utf-8"?><svg xmlns="http://www.w3.org/2000/svg" xmlns:xlink="http://www.w3.org/1999/xlink"><symbol viewBox="0 0 512 512" id="icon-load" xmlns="http://www.w3.org/2000/svg"><path d="M29.3 291.4C25.8 163 128.7 57.8 256.4 57.8V12.7c0-11.4 13.6-16.9 21.4-8.8l70.6 70.4c5 5 5 12.9 0 17.9l-70.6 70.4c-7.8 8.1-21.4 2.3-21.4-8.8v-45.4c-98.4 0-177.9 80.2-176.6 179.1 1.3 93.8 80.2 172.8 174.1 174.1C352.5 462.9 433 383.4 433 285c0-40.6-13.9-78.2-37.3-108-7.8-10.1-7.1-24.2 2-33.3 10.8-10.6 28.5-9.8 37.8 2 30 38.3 47.9 86.8 47.9 139.3 0 127.4-105.2 230.6-233.6 227.1-118.3-3.5-217.2-102.4-220.5-220.7z"/></symbol><symbol viewBox="0 0 512 512" id="icon-search" xmlns="http://www.w3.org/2000/svg"><path fill-rule="evenodd" clip-rule="evenodd" d="M321.9 374.7c-33.1 22.8-73.2 36.2-116.4 36.2C92 410.9 0 318.9 0 205.4 0 92 92 0 205.4 0c113.5 0 205.4 92 205.4 205.4 0 43.2-13.4 83.4-36.2 116.4L512 459.2 459.2 512 321.9 374.7zm-116.4-38.5c72.2 0 130.7-58.5 130.7-130.7 0-72.2-58.5-130.7-130.7-130.7-72.2 0-130.7 58.5-130.7 130.7-.1 72.1 58.5 130.7 130.7 130.7z"/></symbol></svg>