<?xml version="1.0" encoding="utf-8"?>
<!-- Generator: Adobe Illustrator 24.0.1, SVG Export Plug-In . SVG Version: 6.00 Build 0)  -->
<svg version="1.1" id="Слой_1" xmlns="http://www.w3.org/2000/svg" xmlns:xlink="http://www.w3.org/1999/xlink" x="0px" y="0px"
	 width="512px" height="512px" viewBox="0 0 512 512" enable-background="new 0 0 512 512" xml:space="preserve">
<g>
	<path d="M327,371.6c-3.2-0.5-6.1,2.6-6.5,7c-0.4,4.4,1.9,8.4,5.1,8.9c61.7,10,94.5,36.8,94.5,52.4c0,21.8-62.4,52.3-164.2,52.3
		S91.8,461.8,91.8,439.9c0-15.6,32.8-42.4,94.5-52.4c3.2-0.5,5.5-4.5,5.1-8.9c-0.4-4.4-3.3-7.6-6.5-7
		c-61.7,10-104.8,38.1-104.8,68.3c0,34,60.4,68.4,175.9,68.4s175.9-34.4,175.9-68.4C431.9,409.7,388.8,381.6,327,371.6z"/>
	<path d="M256,512.2c-123.5,0-179.8-37.5-179.8-72.3c0-32.2,44.5-61.9,108.1-72.2c2.3-0.4,4.6,0.2,6.6,1.7c2.5,1.9,4.1,5.2,4.5,8.9
		c0.6,6.5-3.1,12.3-8.4,13.1c-63.7,10.3-91.2,37.1-91.2,48.5c0,16.9,55,48.4,160.2,48.4s160.2-31.5,160.2-48.4
		c0-11.4-27.5-38.2-91.2-48.5c-5.2-0.8-8.9-6.6-8.4-13.1c0.3-3.7,1.9-6.9,4.4-8.9c2-1.5,4.3-2.1,6.6-1.7
		c63.7,10.3,108.1,40,108.1,72.2C435.8,474.8,379.5,512.2,256,512.2z M186.1,375.6C126.7,385,84,412.1,84,439.9
		c0,31.3,60.3,64.5,172,64.5s172-33.2,172-64.5c0-27.8-42.7-55-101.6-64.5l0,0c-0.1,0-0.2-0.1-0.5,0.2c-0.6,0.4-1.3,1.6-1.5,3.3
		c-0.2,2.7,1.1,4.6,1.9,4.7c60.4,9.8,97.8,36.8,97.8,56.2c0,26.6-69,56.2-168.1,56.2c-99,0-168.1-29.6-168.1-56.2
		c0-19.4,37.4-46.5,97.8-56.2c0.8-0.1,2.1-2.1,1.9-4.7C187.4,377.2,186.7,376.1,186.1,375.6z"/>
</g>
<path d="M240.1,408.1c7.8,10.8,23.9,10.8,31.7,0l109.2-151.9C428,196,421.2,97,366.6,44.4C337,15.9,297.8,0.2,256,0.2
	c-41.8,0-81,15.7-110.6,44.1C90.8,97,84,196,130.8,256L240.1,408.1z M257.5,94.5c31.5,0,57.1,24.7,57.1,55s-25.6,55-57.1,55
	c-31.5,0-57.1-24.7-57.1-55S226,94.5,257.5,94.5z"/>
<path d="M256,416.2c-6.3,0-12.2-3-15.9-8.1L130.8,256c-22.3-28.6-33.5-68.2-30.7-108.6c2.8-40.4,19.3-78,45.4-103
	C175,15.9,214.3,0.2,256,0.2c41.8,0,81,15.7,110.6,44.1c26,25.1,42.6,62.7,45.3,103.1c2.8,40.4-8.4,80-30.8,108.7l-0.1,0.1
	L271.9,408.1C268.2,413.2,262.3,416.2,256,416.2z M256,19.8c-36.7,0-71.1,13.7-97,38.6c-22.6,21.7-37,54.7-39.4,90.3
	c-2.5,35.6,7.2,70.4,26.6,95.2L256,396.7l109.7-152.5c19.4-25,29.2-59.8,26.7-95.4c-2.4-35.6-16.8-68.6-39.4-90.3
	C327.1,33.5,292.7,19.8,256,19.8z"/>
</svg>
