<svg xmlns="http://www.w3.org/2000/svg" width="135" height="28"><path fill="#FFF" d="M31.7 20c.8 0 1.4-.1 1.9-.2.9-.3 1.6-.9 2.2-1.8.5-.7.8-1.6 1-2.7.1-.6.2-1.3.2-1.8 0-2.1-.4-3.8-1.3-5-.8-1.2-2.2-1.8-4.1-1.8h-4.1V20h4.2zM25.2 4.8h7c2.4 0 4.2.8 5.5 2.5 1.2 1.5 1.7 3.5 1.7 5.8 0 1.8-.3 3.5-1 5-1.2 2.6-3.3 3.9-6.2 3.9h-6.9V4.8zm22.2 4.4c.9 0 1.8.2 2.6.6.8.4 1.5 1 1.9 1.6.4.6.7 1.4.8 2.2.1.6.2 1.5.2 2.8h-9.2c0 1.3.3 2.3.9 3.1.6.8 1.4 1.1 2.6 1.1 1.1 0 2-.4 2.6-1.1.4-.4.6-.9.8-1.5h2.1c-.1.5-.2 1-.6 1.5-.3.6-.6 1-1 1.4-.6.6-1.4 1-2.4 1.3-.5.1-1.1.2-1.7.2-1.6 0-2.9-.6-4-1.7-1-1.1-1.5-2.7-1.5-4.7s.5-3.7 1.6-4.9c1.1-1.3 2.5-1.9 4.3-1.9zm3.4 5.5c-.1-.9-.3-1.6-.6-2.2-.6-1-1.5-1.5-2.9-1.5-1 0-1.8.4-2.4 1.1-.7.7-1 1.6-1 2.7h6.9zm5.8-5.3L60 19.6l3.5-10.2h2.3L61 22h-2.3L54.1 9.4h2.5zm12.7 7c.1 1 .3 1.8.7 2.4.8 1.1 2.1 1.7 4.1 1.7.9 0 1.7-.1 2.4-.4 1.4-.5 2.1-1.4 2.1-2.6 0-.9-.3-1.6-.9-2-.6-.4-1.5-.7-2.8-1l-2.3-.5c-1.5-.3-2.6-.7-3.2-1.1-1.1-.7-1.6-1.8-1.6-3.2 0-1.5.5-2.8 1.6-3.8s2.6-1.5 4.5-1.5c1.8 0 3.3.4 4.6 1.3 1.3.9 1.9 2.3 1.9 4.2h-2.2c-.1-.9-.4-1.6-.8-2.1-.7-.9-1.9-1.3-3.6-1.3-1.4 0-2.4.3-3 .9-.6.6-.9 1.3-.9 2 0 .8.4 1.5 1.1 1.9.5.3 1.5.6 3.1.9l2.4.6c1.2.3 2.1.6 2.7 1.1 1.1.8 1.6 2 1.6 3.5 0 1.9-.7 3.3-2.1 4.1-1.4.8-3 1.2-4.8 1.2-2.1 0-3.8-.5-5-1.6-1.2-1.1-1.8-2.6-1.8-4.4h2.2zm19.5 4.2c1 0 1.8-.4 2.4-1.2.7-.8 1-2.1 1-3.7 0-1-.1-1.9-.4-2.6-.5-1.4-1.5-2.1-3-2.1s-2.5.7-3 2.2c-.3.8-.4 1.8-.4 3 0 1 .1 1.8.4 2.5.6 1.2 1.6 1.9 3 1.9zM83.4 9.5h2.1v1.7c.4-.6.9-1 1.4-1.3.7-.5 1.5-.7 2.5-.7 1.4 0 2.6.5 3.6 1.6s1.5 2.6 1.5 4.7c0 2.7-.7 4.7-2.1 5.9-.9.7-2 1.1-3.2 1.1-.9 0-1.7-.2-2.4-.6-.4-.2-.8-.6-1.3-1.2V27h-2.1V9.5zm15.1 9.2c0 .6.2 1.1.7 1.4.4.4 1 .5 1.6.5.7 0 1.5-.2 2.2-.5 1.2-.6 1.8-1.5 1.8-2.8v-1.7c-.3.2-.6.3-1 .4-.4.1-.8.2-1.2.2l-1.3.2c-.8.1-1.3.3-1.7.5-.8.4-1.1 1-1.1 1.8zm5.1-4.3c.5-.1.8-.3 1-.6.1-.2.1-.5.1-.8 0-.7-.3-1.2-.8-1.6-.5-.3-1.2-.5-2.2-.5-1.1 0-1.9.3-2.3.9-.3.3-.4.8-.5 1.5h-2c0-1.5.5-2.6 1.5-3.2 1-.6 2.1-.9 3.4-.9 1.5 0 2.7.3 3.6.8.9.6 1.4 1.4 1.4 2.6v7.2c0 .2 0 .4.1.5.1.1.3.2.6.2h.3c.1 0 .2 0 .4-.1V22c-.3.1-.6.2-.8.2h-.7c-.7 0-1.3-.3-1.6-.8-.2-.3-.3-.7-.4-1.2-.4.6-1 1.1-1.9 1.5-.8.4-1.7.6-2.7.6-1.2 0-2.1-.4-2.9-1.1-.7-.7-1.1-1.6-1.1-2.7 0-1.2.4-2.1 1.1-2.7.7-.6 1.7-1 2.9-1.2l3.5-.2zm11.5-5.3c1.4 0 2.6.3 3.4 1 .9.7 1.4 1.9 1.6 3.6H118c-.1-.8-.4-1.4-.9-1.9-.4-.5-1.2-.8-2.1-.8-1.3 0-2.3.7-2.9 2-.4.9-.6 1.9-.6 3.2 0 1.3.3 2.3.8 3.2.5.9 1.4 1.3 2.5 1.3.9 0 1.6-.3 2.1-.8s.9-1.3 1.1-2.2h2.1c-.2 1.7-.8 2.9-1.8 3.7-.9.8-2.1 1.1-3.6 1.1-1.6 0-2.9-.6-3.9-1.8-1-1.2-1.5-2.7-1.5-4.5 0-2.2.5-3.9 1.6-5.1 1.2-1.4 2.5-2 4.2-2zm12.4.1c.9 0 1.8.2 2.6.6.8.4 1.5 1 1.9 1.6.4.6.7 1.4.8 2.2.1.6.2 1.5.2 2.8h-9.2c0 1.3.3 2.3.9 3.1.6.8 1.4 1.1 2.6 1.1 1.1 0 2-.4 2.6-1.1.4-.4.6-.9.8-1.5h2.1c-.1.5-.2 1-.6 1.5-.3.6-.6 1-1 1.4-.6.6-1.4 1-2.4 1.3-.5.1-1.1.2-1.7.2-1.6 0-2.9-.6-4-1.7s-1.6-2.7-1.6-4.8c0-2 .5-3.7 1.6-4.9 1.2-1.2 2.6-1.8 4.4-1.8zm3.3 5.5c-.1-.9-.3-1.6-.6-2.2-.6-1-1.5-1.5-2.9-1.5-1 0-1.8.4-2.4 1.1-.7.7-1 1.6-1 2.7h6.9z"/><path fill="#3347BB" stroke="#3347BB" stroke-width=".4" d="M13.6 19.7c-.2 0-.3.1-.3.4 0 .2.1.4.3.5 3.2.5 4.8 1.9 4.8 2.7 0 1.1-3.2 2.7-8.4 2.7s-8.4-1.6-8.4-2.7c0-.8 1.7-2.2 4.8-2.7.2 0 .3-.2.3-.5 0-.2-.2-.4-.3-.4-3.2.5-5.4 1.9-5.4 3.4 0 1.7 3.1 3.5 9 3.5s9-1.8 9-3.5c0-1.5-2.2-2.9-5.4-3.4z"/><path fill="#3347BB" d="M9.2 21.5c.4.6 1.2.6 1.6 0l5.6-7.8c2.4-3.1 2.1-8.1-.7-10.8C14.2 1.4 12.2.6 10 .6c-2.1 0-4.1.8-5.7 2.3-2.8 2.7-3.1 7.8-.8 10.8l5.7 7.8zm.9-16c1.6 0 2.9 1.3 2.9 2.8s-1.3 2.8-2.9 2.8c-1.6 0-2.9-1.3-2.9-2.8s1.3-2.8 2.9-2.8z"/><path fill="none" stroke="#3347BB" d="M16 13.4h0l-5.6 7.8c-.2.3-.6.3-.8 0L4 13.4h0C2.9 12 2.4 10.1 2.5 8.2c.1-1.9.9-3.7 2.2-4.9h0C6.1 1.9 8 1.1 10 1.1s3.9.8 5.3 2.1v0c1.3 1.2 2 3.1 2.2 4.9.1 2-.4 3.9-1.5 5.3z"/></svg>