<svg width="135" height="28" viewBox="0 0 135 28" fill="none" xmlns="http://www.w3.org/2000/svg"><path d="M31.719 20.008c.789 0 1.437-.082 1.945-.246.906-.305 1.648-.89 2.227-1.758.46-.695.793-1.586.996-2.672.117-.648.175-1.25.175-1.805 0-2.132-.425-3.789-1.277-4.968-.844-1.18-2.207-1.77-4.09-1.77H27.56v13.219h4.16zM25.215 4.785h6.973c2.367 0 4.203.84 5.507 2.52 1.164 1.515 1.746 3.457 1.746 5.824 0 1.828-.343 3.48-1.03 4.957C37.198 20.696 35.116 22 32.163 22h-6.95V4.785zm22.183 4.383c.891 0 1.754.21 2.59.633.836.414 1.473.953 1.91 1.617.422.633.704 1.371.844 2.215.125.578.188 1.5.188 2.765h-9.2c.04 1.274.34 2.297.903 3.07.562.766 1.433 1.15 2.613 1.15 1.102 0 1.98-.364 2.637-1.09.375-.422.64-.91.797-1.465h2.074c-.055.46-.238.976-.55 1.546-.306.563-.65 1.024-1.032 1.383-.64.625-1.434 1.047-2.379 1.266a7.227 7.227 0 01-1.723.187c-1.562 0-2.886-.566-3.972-1.699-1.086-1.14-1.63-2.734-1.63-4.781 0-2.016.548-3.652 1.641-4.91 1.094-1.258 2.524-1.887 4.29-1.887zm3.364 5.555c-.086-.914-.285-1.645-.598-2.192-.578-1.015-1.543-1.523-2.895-1.523-.968 0-1.78.351-2.437 1.055-.656.695-1.004 1.582-1.043 2.66h6.973zm5.8-5.274l3.352 10.219 3.504-10.219h2.309L60.992 22h-2.25L54.113 9.45h2.45zm12.774 6.996c.055.977.285 1.77.691 2.38.774 1.14 2.137 1.71 4.09 1.71.875 0 1.672-.125 2.39-.375 1.391-.484 2.087-1.351 2.087-2.601 0-.938-.293-1.606-.88-2.004-.593-.39-1.523-.73-2.788-1.02l-2.332-.527c-1.524-.344-2.602-.723-3.235-1.137-1.093-.719-1.64-1.793-1.64-3.223 0-1.546.535-2.816 1.605-3.808 1.07-.992 2.586-1.488 4.547-1.488 1.805 0 3.336.437 4.594 1.312 1.266.867 1.898 2.258 1.898 4.172h-2.191c-.117-.922-.367-1.629-.75-2.121-.711-.899-1.918-1.348-3.621-1.348-1.375 0-2.364.29-2.965.867-.602.579-.902 1.25-.902 2.016 0 .844.351 1.46 1.054 1.852.461.25 1.504.562 3.13.937l2.413.55c1.164.266 2.063.63 2.696 1.09 1.093.805 1.64 1.973 1.64 3.505 0 1.906-.695 3.27-2.086 4.09-1.383.82-2.992 1.23-4.828 1.23-2.14 0-3.816-.547-5.027-1.64-1.211-1.087-1.805-2.56-1.782-4.419h2.192zm19.5 4.137c.984 0 1.8-.41 2.45-1.23.655-.829.983-2.063.983-3.704 0-1-.144-1.859-.433-2.578-.547-1.383-1.547-2.074-3-2.074-1.461 0-2.461.73-3 2.191-.29.782-.434 1.774-.434 2.977 0 .969.145 1.793.434 2.473.547 1.297 1.547 1.945 3 1.945zM83.375 9.508h2.05v1.664c.423-.57.884-1.012 1.384-1.324.71-.47 1.547-.703 2.507-.703 1.422 0 2.63.546 3.621 1.64.993 1.086 1.489 2.64 1.489 4.664 0 2.735-.715 4.688-2.145 5.86-.906.742-1.96 1.113-3.164 1.113-.945 0-1.738-.207-2.379-.621-.375-.235-.793-.637-1.254-1.207v6.41h-2.109V9.508zm15.14 9.152c0 .61.223 1.09.669 1.442.445.351.972.527 1.582.527a4.81 4.81 0 002.156-.516c1.172-.57 1.758-1.504 1.758-2.8v-1.7c-.258.164-.59.301-.996.41-.407.11-.805.188-1.196.235l-1.277.164c-.766.101-1.34.262-1.723.48-.648.367-.972.953-.972 1.758zm5.11-4.265c.484-.063.809-.266.973-.61.093-.187.14-.457.14-.808 0-.72-.258-1.239-.773-1.559-.508-.328-1.238-.492-2.192-.492-1.101 0-1.882.297-2.343.89-.258.329-.426.817-.504 1.465h-1.969c.04-1.547.54-2.62 1.5-3.222.969-.61 2.09-.914 3.363-.914 1.477 0 2.676.28 3.598.843.914.563 1.371 1.438 1.371 2.625v7.23c0 .22.043.395.129.528.094.133.285.2.574.2.094 0 .199-.005.317-.012.117-.016.242-.036.375-.059v1.559a5.965 5.965 0 01-.75.175 5.505 5.505 0 01-.704.035c-.726 0-1.253-.257-1.582-.773-.171-.273-.293-.66-.363-1.16-.43.562-1.047 1.05-1.851 1.465-.805.414-1.692.62-2.661.62-1.164 0-2.117-.35-2.859-1.054-.734-.71-1.102-1.598-1.102-2.66 0-1.164.364-2.066 1.09-2.707.727-.64 1.68-1.035 2.86-1.184l3.363-.421zm11.473-5.31c1.414 0 2.562.345 3.445 1.032.891.688 1.426 1.871 1.605 3.551h-2.05c-.125-.773-.41-1.414-.856-1.922-.445-.516-1.16-.773-2.144-.773-1.344 0-2.305.656-2.883 1.968-.375.852-.563 1.903-.563 3.153 0 1.258.266 2.316.797 3.175.531.86 1.367 1.29 2.508 1.29.875 0 1.566-.266 2.074-.797.516-.54.871-1.274 1.067-2.203h2.05c-.234 1.664-.82 2.882-1.757 3.656-.938.765-2.137 1.148-3.598 1.148-1.641 0-2.949-.597-3.926-1.793-.976-1.203-1.465-2.703-1.465-4.5 0-2.203.536-3.918 1.606-5.144 1.07-1.227 2.433-1.84 4.09-1.84zm12.386.083c.891 0 1.754.21 2.59.633.836.414 1.473.953 1.91 1.617.422.633.704 1.371.844 2.215.125.578.188 1.5.188 2.765h-9.2c.039 1.274.34 2.297.903 3.07.562.766 1.433 1.15 2.613 1.15 1.102 0 1.98-.364 2.637-1.09.375-.422.64-.91.797-1.465h2.074c-.055.46-.238.976-.551 1.546-.305.563-.648 1.024-1.031 1.383-.641.625-1.434 1.047-2.379 1.266a7.229 7.229 0 01-1.723.187c-1.562 0-2.886-.566-3.972-1.699-1.086-1.14-1.629-2.734-1.629-4.781 0-2.016.547-3.652 1.64-4.91 1.094-1.258 2.524-1.887 4.289-1.887zm3.364 5.555c-.086-.914-.286-1.645-.598-2.192-.578-1.015-1.543-1.523-2.895-1.523-.968 0-1.781.351-2.437 1.055-.656.695-1.004 1.582-1.043 2.66h6.973z" fill="#fff"/><path d="M13.635 19.65c-.165-.027-.314.135-.333.362-.02.226.098.43.263.456 3.155.51 4.835 1.884 4.835 2.68 0 1.117-3.196 2.676-8.4 2.676-5.204 0-8.4-1.559-8.4-2.676 0-.796 1.68-2.17 4.835-2.68.165-.026.282-.23.263-.456-.02-.227-.168-.39-.333-.361C3.206 20.16 1 21.599 1 23.148c0 1.739 3.091 3.5 9 3.5s9-1.761 9-3.5c0-1.549-2.206-2.987-5.365-3.497z" fill="#3347BB" stroke="#3347BB" stroke-width=".4"/><path d="M9.189 21.518a1 1 0 001.624 0l5.588-7.773c2.4-3.082 2.054-8.148-.743-10.84-1.511-1.456-3.52-2.257-5.657-2.257s-4.146.801-5.658 2.256C1.547 5.597 1.2 10.663 3.591 13.733l5.598 7.785zm.886-16.05c1.61 0 2.92 1.263 2.92 2.813 0 1.55-1.31 2.813-2.92 2.813-1.61 0-2.92-1.262-2.92-2.813 0-1.55 1.31-2.812 2.92-2.812z" fill="#3347BB"/><path d="M16.007 13.438l-.006.008-.006.008-5.588 7.773a.5.5 0 01-.812 0L3.997 13.44l-.006-.008-.006-.007c-1.107-1.422-1.595-3.329-1.464-5.214.13-1.886.875-3.701 2.17-4.947h0C6.105 1.9 7.99 1.148 10 1.148s3.894.753 5.31 2.117h0c1.294 1.246 2.04 3.062 2.169 4.948.13 1.887-.36 3.797-1.473 5.225z" stroke="#3347BB"/></svg>