<?xml version="1.0" encoding="utf-8"?>
<!-- Generator: Adobe Illustrator 24.0.1, SVG Export Plug-In . SVG Version: 6.00 Build 0)  -->
<svg version="1.1" id="Layer_1" xmlns="http://www.w3.org/2000/svg" xmlns:xlink="http://www.w3.org/1999/xlink" x="0px" y="0px"
	 width="68px" height="13px" viewBox="0 0 68 13" enable-background="new 0 0 68 13" xml:space="preserve">
<g>
	<g>
		<path id="wordmark_3_" fill="#0CAA41" d="M7.5,2.8H6C5.9,2.8,5.8,2.9,5.8,3v0.8C5.4,3.2,4.6,2.7,3.5,2.7C1.7,2.7,0.2,4,0.2,6.4
			c0,2.4,1.4,3.7,3.3,3.7c1,0,1.8-0.4,2.3-1.1v0.5c0,1-0.5,1.8-2.1,1.8c-0.8,0-1.4-0.3-2-0.8c-0.1-0.1-0.2,0-0.2,0l-0.7,1.2
			c-0.1,0.1-0.1,0.2,0,0.3c0.7,0.6,1.7,1,3.1,1c3,0,3.9-1.7,3.9-3.5V3C7.7,2.9,7.6,2.8,7.5,2.8z M4,8.3c-1.1,0-1.9-0.8-1.9-1.9
			S2.9,4.5,4,4.5s1.9,0.7,1.9,1.9C5.8,7.6,5.1,8.3,4,8.3z M11.1,0.2v9.7c0,0.1-0.1,0.2-0.2,0.2H9.4c-0.1,0-0.2-0.1-0.2-0.2V0.2
			C9.2,0.1,9.3,0,9.4,0H11C11.1,0,11.1,0.1,11.1,0.2z M15.8,2.7c-1.5,0-2.6,0.5-3.1,1.5c0,0.1,0,0.2,0.1,0.2l1.1,0.8
			c0.1,0.1,0.2,0,0.2,0c0.3-0.6,1-0.8,1.7-0.8c0.8,0,1.2,0.3,1.2,0.7v0.1c0,0.2-0.1,0.3-0.4,0.3l-2,0.2c-1.3,0.1-2.3,0.9-2.3,2.2
			c0,1.3,1,2.2,2.4,2.2c1.1,0,1.8-0.5,2.2-1.1v0.8c0,0.1,0.1,0.2,0.2,0.2h1.6c0.1,0,0.2-0.1,0.2-0.2V5.6C18.9,3.6,17.9,2.7,15.8,2.7
			z M17,7.1c0,0.8-0.6,1.5-1.6,1.5c-0.7,0-1-0.3-1-0.8c0-0.4,0.3-0.7,0.9-0.8L17,6.8L17,7.1z M26.4,7.8c0,1.6-1.2,2.3-3.1,2.3
			c-1.3,0-2.4-0.4-3.1-1.1c0-0.1,0-0.1,0-0.2l0.9-1.2c0.1-0.1,0.2-0.1,0.2,0c0.5,0.5,1.2,0.8,2.1,0.8c0.5,0,0.9-0.1,0.9-0.5
			c0-0.4-0.4-0.5-1.6-0.7c-1.1-0.2-2.4-0.7-2.4-2.2c0-1.4,1.1-2.3,3-2.3c1.2,0,2.1,0.4,2.7,0.9c0.1,0.1,0.1,0.1,0,0.2L25.4,5
			C25.3,5,25.2,5,25.2,5c-0.4-0.4-1.1-0.6-1.8-0.6c-0.6,0-0.9,0.2-0.9,0.5c0,0.4,0.4,0.4,1.7,0.7C25.3,5.9,26.4,6.3,26.4,7.8z
			 M33.6,7.8c0,1.6-1.2,2.3-3.1,2.3c-1.3,0-2.4-0.4-3.1-1.1c0-0.1,0-0.1,0-0.2l0.9-1.2c0.1-0.1,0.2-0.1,0.2,0
			c0.5,0.5,1.2,0.8,2.1,0.8c0.5,0,0.9-0.1,0.9-0.5c0-0.4-0.4-0.5-1.6-0.7c-1.1-0.2-2.4-0.7-2.4-2.2c0-1.4,1.1-2.3,3-2.3
			c1.2,0,2.1,0.4,2.7,0.9c0.1,0.1,0.1,0.1,0,0.2L32.6,5C32.6,5,32.5,5,32.4,5c-0.4-0.4-1.1-0.6-1.8-0.6c-0.6,0-0.9,0.2-0.9,0.5
			c0,0.4,0.4,0.4,1.7,0.7C32.6,5.9,33.6,6.3,33.6,7.8z M42,0h-1.6c-0.1,0-0.2,0.1-0.2,0.2v3.7c-0.5-0.7-1.3-1.2-2.4-1.2
			c-1.7,0-3.2,1.3-3.2,3.8s1.5,3.7,3.2,3.7c1,0,1.9-0.5,2.4-1.2v0.8c0,0.1,0.1,0.2,0.2,0.2H42c0.1,0,0.2-0.1,0.2-0.2V0.1
			C42.2,0.1,42.1,0,42,0z M38.5,8.3c-1.1,0-1.9-0.8-1.9-1.9s0.8-1.9,1.9-1.9c1.1,0,1.9,0.7,1.9,1.9C40.3,7.6,39.5,8.3,38.5,8.3z
			 M47.2,2.7c-2.2,0-3.8,1.5-3.8,3.7c0,2.2,1.6,3.7,3.8,3.7c2.2,0,3.8-1.5,3.8-3.7C51,4.2,49.3,2.7,47.2,2.7z M47.2,8.3
			c-1.1,0-1.9-0.8-1.9-1.9s0.8-1.9,1.9-1.9c1.1,0,1.9,0.8,1.9,1.9C49,7.6,48.2,8.3,47.2,8.3z M55.8,2.7c-2.2,0-3.8,1.5-3.8,3.7
			c0,2.2,1.6,3.7,3.8,3.7c2.2,0,3.8-1.5,3.8-3.7C59.7,4.2,58.1,2.7,55.8,2.7z M55.8,8.3c-1.1,0-1.9-0.8-1.9-1.9s0.8-1.9,1.9-1.9
			c1.1,0,1.9,0.8,1.9,1.9C57.7,7.6,56.9,8.3,55.8,8.3z M65.9,3c0-0.1-0.1-0.1-0.1-0.2c-0.1-0.1-0.4-0.1-0.8-0.1
			c-1,0-1.9,0.5-2.3,1.3V3c0-0.1-0.1-0.2-0.2-0.2H61c-0.1,0-0.2,0.1-0.2,0.2v6.8c0,0.1,0.1,0.2,0.2,0.2h1.6c0.1,0,0.2-0.1,0.2-0.2
			V6.7c0-1.4,0.9-2,2.2-2c0.3,0,0.6,0.1,0.7,0.1c0.1,0,0.2,0,0.2-0.1V3z"/>
	</g>
	<g>
		<path fill="#0CAA41" d="M66.7,2.5c0-0.1,0-0.1,0-0.2c0,0,0-0.1,0.1-0.1s0.1-0.1,0.1-0.1C66.9,2,66.9,2,67,2c0,0,0.1,0,0.1-0.1
			c0,0,0.1,0,0.2,0s0.1,0,0.2,0c0,0,0.1,0,0.1,0.1c0,0,0.1,0.1,0.1,0.1c0,0,0.1,0.1,0.1,0.1s0,0.1,0.1,0.1c0,0,0,0.1,0,0.2
			c0,0.1,0,0.1,0,0.2c0,0,0,0.1-0.1,0.1c0,0-0.1,0.1-0.1,0.1c0,0-0.1,0.1-0.1,0.1c0,0-0.1,0-0.1,0.1c0,0-0.1,0-0.2,0s-0.1,0-0.2,0
			C67,3,67,3,67,2.9c0,0-0.1-0.1-0.1-0.1c0,0-0.1-0.1-0.1-0.1c0,0,0-0.1-0.1-0.1C66.7,2.6,66.7,2.5,66.7,2.5z M66.7,2.5
			c0,0,0,0.1,0,0.1c0,0,0,0.1,0,0.1c0,0,0,0.1,0.1,0.1c0,0,0.1,0.1,0.1,0.1c0,0,0.1,0,0.1,0c0,0,0.1,0,0.1,0c0.1,0,0.1,0,0.2,0
			c0.1,0,0.1-0.1,0.2-0.1c0,0,0.1-0.1,0.1-0.2c0-0.1,0-0.1,0-0.2c0,0,0-0.1,0-0.1c0,0,0-0.1,0-0.1c0,0,0-0.1-0.1-0.1
			c0,0-0.1-0.1-0.1-0.1c0,0-0.1,0-0.1-0.1c0,0-0.1,0-0.1,0c-0.1,0-0.1,0-0.2,0c-0.1,0-0.1,0.1-0.2,0.1c0,0-0.1,0.1-0.1,0.2
			C66.8,2.3,66.7,2.4,66.7,2.5z M67.1,2.5v0.3H67V2.1h0.2c0.1,0,0.2,0,0.2,0c0,0,0.1,0.1,0.1,0.1c0,0,0,0.1,0,0.1
			c0,0-0.1,0.1-0.1,0.1c0,0,0,0,0,0c0,0,0,0,0,0l0.2,0.3h-0.1c0,0,0,0,0,0l-0.2-0.2C67.2,2.5,67.2,2.5,67.1,2.5
			C67.2,2.5,67.2,2.5,67.1,2.5L67.1,2.5z M67.1,2.4L67.1,2.4c0.1,0,0.1,0,0.2,0c0,0,0,0,0,0c0,0,0,0,0,0c0,0,0,0,0-0.1
			c0,0,0,0,0-0.1c0,0,0,0,0,0c0,0,0,0,0,0c0,0,0,0-0.1,0h-0.1V2.4z"/>
	</g>
</g>
</svg>
