<svg width="66" height="17" viewBox="0 0 66 17" fill="none" xmlns="http://www.w3.org/2000/svg">
<path d="M63.9699 3.01718H64.2576C64.3954 3.01718 64.4895 2.99638 64.5402 2.95583C64.5644 2.93645 64.5837 2.91169 64.5966 2.88352C64.6095 2.85536 64.6157 2.82457 64.6146 2.7936C64.6152 2.75193 64.6025 2.71115 64.5784 2.67713C64.5535 2.64206 64.5184 2.61547 64.4778 2.60096C64.4355 2.58276 64.3556 2.57548 64.2394 2.57548H63.9699V3.01718ZM63.732 3.84546V2.3753H64.2374C64.4097 2.3753 64.5353 2.38908 64.613 2.41586C64.69 2.4429 64.7513 2.49073 64.7976 2.55885C64.8433 2.62566 64.8665 2.69767 64.8665 2.77306C64.8665 2.88095 64.8275 2.97402 64.7511 3.05384C64.6741 3.13313 64.5722 3.1781 64.4456 3.18772C64.4976 3.2093 64.5392 3.2353 64.5706 3.26546C64.6289 3.32291 64.7014 3.4204 64.7872 3.55715L64.966 3.84572H64.6741L64.5446 3.61356C64.4414 3.4321 64.3598 3.31797 64.2987 3.27196C64.255 3.23738 64.1924 3.21996 64.1095 3.21996H63.9699V3.84546H63.732ZM64.3304 1.94661C64.1381 1.94661 63.9509 1.996 63.7684 2.09427C63.5883 2.19152 63.4399 2.33853 63.341 2.51777C63.2406 2.69187 63.1875 2.88924 63.1871 3.09023C63.1871 3.28755 63.2373 3.47656 63.3379 3.65802C63.4393 3.83844 63.5804 3.97935 63.7624 4.08022C63.9352 4.17958 64.1311 4.23201 64.3304 4.2323C64.528 4.2323 64.7173 4.18187 64.8982 4.08022C65.0765 3.98268 65.2231 3.83619 65.3209 3.65802C65.4197 3.48506 65.4718 3.28941 65.4722 3.09023C65.4722 2.89161 65.421 2.70027 65.3188 2.51777C65.2204 2.33809 65.0719 2.19088 64.8914 2.09401C64.7087 1.99574 64.5215 1.94661 64.3304 1.94661ZM64.3304 1.72095C64.56 1.72095 64.7848 1.77996 65.0032 1.89773C65.2194 2.01273 65.3971 2.18863 65.5143 2.40364C65.6373 2.62358 65.6978 2.8521 65.6978 3.09023C65.6978 3.32577 65.6381 3.55273 65.5177 3.77033C65.4006 3.98438 65.2247 4.16047 65.0108 4.2778C64.8033 4.39546 64.5689 4.45743 64.3304 4.4577C64.0917 4.4575 63.857 4.39552 63.6493 4.2778C63.4357 4.16012 63.2598 3.98412 63.1424 3.77033C63.0243 3.56307 62.9618 3.32879 62.9609 3.09023C62.9609 2.8521 63.0223 2.62358 63.1455 2.40364C63.2634 2.18906 63.4412 2.01338 63.6571 1.89799C63.8765 1.77996 64.1004 1.72095 64.3304 1.72095Z" fill="#808080"/>
<path fill-rule="evenodd" clip-rule="evenodd" d="M7.70073 0.0305531C7.01518 0.0487514 6.3252 0.191998 5.66928 0.428315C3.12906 1.48849 1.36252 3.80176 0.563356 6.57725C0.428429 7.09824 0.318979 7.61975 0.260224 8.1579C0.260224 8.17532 0.218108 8.70515 0.293761 8.56216C0.369414 8.43634 0.402951 8.25097 0.445067 8.10773C0.831911 6.80421 1.30351 5.61794 2.02676 4.49095C3.75976 1.94189 6.54384 0.301967 9.48755 1.21058C10.0345 1.39516 10.5223 1.66476 11.01 1.98427C11.1023 2.0516 11.7837 2.59001 11.6323 2.10204C11.5063 1.71571 11.1867 1.38684 10.9088 1.12609C9.97344 0.316526 8.84359 0.000135988 7.70073 0.0305531ZM29.1859 2.58091C28.7908 2.58091 28.4881 2.7161 28.2776 2.99375C28.0587 3.26257 27.9581 3.66657 27.9581 4.19666V8.03233C27.4701 7.49419 26.9657 7.10682 26.4528 6.84555C26.0997 6.67512 25.7219 6.56167 25.3333 6.5094C25.0771 6.47495 24.8187 6.45818 24.5602 6.45922C23.2733 6.45922 22.2217 6.91288 21.4314 7.82097C20.6402 8.72959 20.2451 9.99177 20.2451 11.6151C20.2451 12.3807 20.3465 13.0951 20.5396 13.7513C20.7419 14.4074 21.0359 14.9791 21.4228 15.4671C21.7948 15.9389 22.2654 16.3237 22.8017 16.5946C23.3318 16.8546 23.9035 16.9898 24.5261 16.9898C24.804 16.9898 25.0731 16.9638 25.3333 16.9136C25.4988 16.8875 25.662 16.8483 25.8213 16.7964C26.2153 16.662 26.5868 16.4692 26.9233 16.2244C27.2686 15.9717 27.6047 15.6439 27.9581 15.2487V15.5004C27.9581 15.9806 28.0761 16.3422 28.3028 16.6027C28.5297 16.8549 28.8331 16.9898 29.1859 16.9898C29.5306 16.9898 29.8335 16.8637 30.0607 16.6196C30.288 16.3671 30.3969 15.9975 30.3969 15.5004V4.06147C30.3969 3.58234 30.2963 3.21213 30.0857 2.9597C29.8676 2.70752 29.5644 2.58091 29.1859 2.58091ZM60.929 2.58091C60.5338 2.58091 60.2309 2.7161 60.0209 2.99375C59.8103 3.26257 59.7011 3.66657 59.7011 4.19666V8.03233C59.2134 7.49419 58.7085 7.10682 58.1958 6.84555C57.8761 6.68566 57.4978 6.56867 57.0769 6.5094C56.8204 6.47491 56.5618 6.45815 56.303 6.45922C55.0166 6.45922 53.9736 6.91288 53.1741 7.82097C52.3838 8.72959 51.9881 9.99177 51.9881 11.6151C51.9881 12.3807 52.089 13.0951 52.2907 13.7513C52.4925 14.4074 52.7785 14.9791 53.1656 15.4671C53.5378 15.939 54.0087 16.3239 54.5453 16.5946C55.0748 16.8546 55.6473 16.9898 56.2697 16.9898C56.5551 16.9898 56.8245 16.9638 57.0769 16.9136C57.2454 16.8887 57.4045 16.8468 57.5644 16.7964C57.9582 16.6621 58.3297 16.4693 58.6661 16.2244C59.0114 15.9717 59.3564 15.6439 59.7008 15.2487V15.5004C59.7008 15.9806 59.8186 16.3422 60.0458 16.6027C60.2814 16.8549 60.5757 16.9898 60.9287 16.9898C61.2909 16.9898 61.5846 16.8637 61.8124 16.6196C62.0396 16.3671 62.1571 15.9975 62.1571 15.5004V4.06147C62.1571 3.58234 62.0479 3.21213 61.8378 2.9597C61.6189 2.70752 61.3247 2.58091 60.9287 2.58091H60.929ZM7.0378 3.28154C6.68224 3.27224 6.33006 3.35262 6.01375 3.51526C4.96241 4.04483 4.54151 5.33171 5.07992 6.38305C5.60975 7.43465 6.89611 7.85555 7.94771 7.3174C8.99905 6.78731 9.41969 5.50043 8.88154 4.44961C8.70867 4.10631 8.44588 3.81635 8.12118 3.61064C7.79648 3.40493 7.42205 3.29119 7.0378 3.28154ZM36.3438 6.42517C35.5951 6.43375 34.914 6.55983 34.2916 6.79485C33.652 7.04781 33.1142 7.40969 32.6769 7.87245C32.2391 8.34301 31.9027 8.90715 31.6754 9.56281C31.4482 10.2192 31.3307 10.9342 31.3307 11.6993C31.3307 13.3312 31.8018 14.6092 32.7268 15.5594C33.6016 16.46 34.8048 16.9305 36.3438 16.9807C36.4361 16.9895 36.5204 16.9898 36.6129 16.9898C37.3447 16.9898 37.984 16.897 38.5476 16.7038C39.111 16.5099 39.5735 16.2749 39.9435 15.9884C40.3222 15.6946 40.5913 15.3915 40.7767 15.08C40.9618 14.7691 41.0538 14.4917 41.0538 14.2647C41.0538 14.004 40.9701 13.7936 40.8102 13.6501C40.6425 13.5077 40.4231 13.4315 40.1624 13.4315C39.9102 13.4315 39.7256 13.4908 39.5904 13.6C39.3317 13.8463 39.0682 14.0875 38.8001 14.3235C38.5883 14.5015 38.3663 14.6672 38.1353 14.8195C37.8909 14.9708 37.6476 15.0891 37.3866 15.1562C37.1344 15.2316 36.8484 15.2654 36.5373 15.2654C36.4697 15.2654 36.4026 15.2654 36.3438 15.2568C35.9572 15.2316 35.5951 15.1224 35.2675 14.9201C34.8887 14.6934 34.5773 14.3573 34.3509 13.9197C34.1151 13.4656 33.997 12.944 33.9887 12.3555H39.0689C39.7422 12.3555 40.2718 12.2546 40.6501 12.0695C41.0205 11.8678 41.2056 11.4469 41.2056 10.7993C41.2056 10.0926 41.0289 9.40318 40.667 8.72205C40.3053 8.04871 39.7589 7.49418 39.0356 7.06445C38.3118 6.63601 37.4368 6.42517 36.4281 6.42517H36.3438ZM46.7317 6.42517C45.983 6.43375 45.2932 6.55983 44.6794 6.79485C44.0399 7.04781 43.5017 7.40969 43.0554 7.87245C42.6264 8.34301 42.2905 8.90715 42.0638 9.56281C41.8363 10.2192 41.7186 10.9342 41.7186 11.6993C41.7186 13.3312 42.1811 14.6092 43.1063 15.5594C43.9806 16.46 45.1924 16.9305 46.7317 16.9807C46.8162 16.9895 46.9077 16.9898 47.0002 16.9898C47.724 16.9898 48.3716 16.897 48.935 16.7038C49.4984 16.5099 49.9611 16.2749 50.3311 15.9884C50.7018 15.6946 50.9786 15.3915 51.164 15.08C51.3489 14.7691 51.4417 14.4917 51.4417 14.2647C51.4417 14.004 51.3572 13.7936 51.189 13.6501C51.0293 13.5077 50.811 13.4315 50.5416 13.4315C50.2973 13.4315 50.1124 13.4908 49.9777 13.6C49.6497 13.9028 49.3897 14.1467 49.1877 14.3235C48.9729 14.5016 48.7481 14.6672 48.5143 14.8195C48.2796 14.9708 48.0266 15.0891 47.7747 15.1562C47.5134 15.2316 47.2366 15.2654 46.9251 15.2654C46.8575 15.2654 46.7904 15.2654 46.7317 15.2568C46.3446 15.2316 45.9827 15.1224 45.6546 14.9201C45.2678 14.6934 44.9649 14.3573 44.7296 13.9197C44.5024 13.4656 44.3844 12.944 44.376 12.3555H49.4477C50.1293 12.3555 50.6591 12.2546 51.0294 12.0695C51.4081 11.8678 51.5925 11.4469 51.5925 10.7993C51.5925 10.0926 51.4081 9.40318 51.0462 8.72205C50.6846 8.04871 50.146 7.49418 49.4141 7.06445C48.6906 6.63601 47.8249 6.42517 46.8068 6.42517H46.7317ZM11.4054 6.44258C11.0269 6.44258 10.7321 6.56841 10.522 6.81227C10.3034 7.04781 10.1939 7.41801 10.1939 7.91405V15.4081C10.1939 15.9124 10.3117 16.3081 10.5553 16.5775C10.7996 16.8546 11.102 16.9898 11.4808 16.9898C11.8676 16.9898 12.1786 16.8546 12.4229 16.5946C12.6668 16.3253 12.7931 15.9377 12.7931 15.4081V12.1701C12.7931 11.1016 12.8519 10.3869 12.978 9.99983C13.1545 9.51237 13.441 9.13411 13.8193 8.85646C14.198 8.58712 14.6184 8.44413 15.0812 8.44413C15.787 8.44413 16.2667 8.67135 16.5025 9.12501C16.7378 9.57971 16.856 10.2351 16.856 11.0935V15.4081C16.856 15.9124 16.9733 16.3081 17.2174 16.5775C17.461 16.8546 17.7725 16.9898 18.1593 16.9898C18.5376 16.9898 18.8488 16.8546 19.0843 16.5855C19.3201 16.3253 19.4459 15.9293 19.4459 15.4081V10.5889C19.4459 10.0172 19.421 9.54565 19.3703 9.18402C19.3198 8.81382 19.2109 8.46961 19.0341 8.14958C18.765 7.60312 18.3696 7.18247 17.8312 6.88792C17.2928 6.59337 16.6793 6.44258 15.9976 6.44258C15.291 6.44258 14.6686 6.58505 14.1219 6.86297C13.5837 7.14868 13.0877 7.58622 12.6244 8.19144V7.87245C12.6244 7.56958 12.5742 7.30882 12.4651 7.08992C12.3559 6.87154 12.2043 6.7114 12.0195 6.60195C11.8338 6.4925 11.6321 6.44258 11.4054 6.44258ZM36.3358 8.23382H36.3438C37.0161 8.23382 37.5631 8.45245 37.9752 8.88999C38.3963 9.32701 38.6314 9.99177 38.6984 10.8835H33.9884C34.0813 10.0089 34.3334 9.34417 34.7455 8.89857C35.1576 8.45271 35.6874 8.23382 36.3355 8.23382H36.3358ZM46.7231 8.23382H46.7317C47.4045 8.23382 47.9505 8.45245 48.3625 8.88999C48.7751 9.32701 49.019 9.99177 49.078 10.8835H44.3763C44.4603 10.0089 44.7127 9.34417 45.1334 8.89857C45.5457 8.45271 46.0755 8.23382 46.7231 8.23382ZM25.3006 8.38512H25.3333C25.7792 8.38512 26.1915 8.51979 26.5617 8.7808C26.9486 9.0413 27.252 9.41982 27.4787 9.91612C27.6978 10.4124 27.8153 11.0096 27.8153 11.6995C27.8153 12.4394 27.6978 13.0532 27.4787 13.541C27.252 14.0289 26.9486 14.3903 26.5703 14.6256C26.1998 14.8611 25.7792 14.9797 25.3333 14.9797H25.3255C24.8714 14.9797 24.4588 14.8533 24.0803 14.6095C23.6939 14.3573 23.3991 13.9871 23.1807 13.4994C22.9618 13.0031 22.8526 12.4059 22.8526 11.6993C22.8526 11.0348 22.954 10.4459 23.1558 9.94965C23.3658 9.4453 23.6518 9.05794 24.0301 8.78886C24.4003 8.51095 24.8292 8.38512 25.3006 8.38512ZM57.0514 8.38512H57.0769C57.5228 8.38512 57.9348 8.51979 58.3134 8.7808C58.6919 9.0413 58.995 9.41982 59.2217 9.91612C59.4489 10.4124 59.5584 11.0096 59.5584 11.6995C59.5584 12.4394 59.4489 13.0532 59.2217 13.541C58.995 14.0289 58.6914 14.3903 58.3214 14.6256C57.9489 14.8601 57.5171 14.983 57.0769 14.9797H57.0688C56.6149 14.9797 56.2021 14.8533 55.8236 14.6095C55.4456 14.3573 55.1427 13.9871 54.924 13.4994C54.7054 13.0031 54.596 12.4059 54.596 11.6993C54.596 11.0348 54.696 10.4462 54.9066 9.94965C55.1086 9.4453 55.4032 9.05794 55.7734 8.78886C56.1524 8.51095 56.5723 8.38512 57.0514 8.38512ZM8.47806 8.46961C7.80472 8.87257 7.0144 9.10005 6.17338 9.10005C5.99711 9.10005 5.82865 9.09199 5.65186 9.07484V15.2654C5.65186 15.8373 5.78653 16.2663 6.04755 16.5525C6.31662 16.8468 6.64497 16.9898 7.05703 16.9898C7.47715 16.9898 7.82266 16.8468 8.08264 16.5608C8.34391 16.2749 8.47806 15.8459 8.47806 15.2654V8.46987V8.46961Z" fill="#2164F3"/>
</svg>
