<svg width="134" height="42" viewBox="0 0 134 42" fill="none" xmlns="http://www.w3.org/2000/svg">
<path d="M93.0588 11.8065C92.9868 10.6935 92.3405 10.1786 91.8738 9.98542C91.8912 8.86314 91.9085 7.70378 91.7365 6.63297C91.4421 4.79552 89.4093 1.16182 84.965 0.583976C84.0595 0.481774 83.1454 0.481774 82.2399 0.583976C81.4435 0.684462 80.666 0.900575 79.932 1.22549C78.9412 1.22549 78.0216 0.857167 77.6896 0.529338C77.6812 1.15155 77.8619 1.76165 78.2077 2.27898C76.511 3.64494 75.6509 5.48752 75.4677 6.63005C75.2958 7.70061 75.3138 8.85606 75.3302 9.98225C74.8638 10.1754 74.2171 10.6906 74.1454 11.8036C74.0735 12.9166 75.5104 14.1499 75.7492 15.0121C76.1102 16.3122 76.4898 17.6087 77.181 18.7883C77.9521 20.1037 79.0297 21.2348 80.0344 21.8097C80.8601 22.2815 82.6146 22.7083 83.6 22.7083C84.5857 22.7083 86.3402 22.2824 87.1659 21.8097C88.1716 21.235 89.2492 20.105 90.0193 18.7883C90.7103 17.6084 91.0899 16.3122 91.4511 15.0121C91.6936 14.1533 93.1305 12.9195 93.0588 11.8065V11.8065ZM77.3071 7.30473C78.4079 7.63963 83.5564 7.81062 86.5495 6.46686C86.4303 6.8503 86.1902 7.4484 84.8294 7.9038C86.5049 7.73574 87.3669 7.25717 88.0867 6.00341C88.5055 7.12252 89.4607 7.20252 89.6398 8.68898C89.6398 9.08364 89.66 9.55905 89.6551 9.95469V10.243L88.9102 10.3128C88.3438 9.98786 87.4369 9.81492 86.401 9.86053C85.4324 9.90102 84.2425 10.0832 83.8286 10.6962H83.1295C82.7158 10.083 81.5248 9.90102 80.5574 9.86053C79.5222 9.81589 78.6155 9.98786 78.0479 10.3128L77.3032 10.243V9.95469C77.2869 9.55929 77.3049 7.70037 77.3071 7.30473V7.30473ZM88.3738 12.9803C88.2131 13.0722 87.8213 13.1747 86.8783 13.1747C86.7286 13.1747 86.5747 13.1747 86.4261 13.1686C85.6307 13.1496 85.3716 12.9886 85.146 12.6778C84.9204 12.3671 84.7221 11.6597 84.6845 11.1943C84.8555 11.0738 85.4019 10.8826 86.4351 10.8391C87.3357 10.8028 88.0074 10.9587 88.3455 11.1214C88.5102 11.8734 88.5075 12.7649 88.3738 12.9803V12.9803ZM82.2599 11.1894C82.2236 11.6551 82.0311 12.3583 81.7975 12.6788C81.5638 12.9996 81.3128 13.1496 80.5174 13.1696C80.3666 13.1696 80.2139 13.1757 80.0651 13.1757C79.1221 13.1757 78.7304 13.0744 78.5697 12.9813C78.4372 12.7659 78.434 11.8743 78.5989 11.1236C78.937 10.9596 79.6107 10.8028 80.5093 10.8413C81.5548 10.8848 82.1012 11.0801 82.2599 11.1894V11.1894ZM83.4744 16.7062H85.3219C85.7065 16.7062 86.1093 16.8772 86.3063 17.1645C86.4073 17.3294 86.4737 17.5131 86.5016 17.7044C86.5294 17.8957 86.5181 18.0907 86.4683 18.2775C86.3783 18.6183 86.0829 19.1405 85.6873 19.5361C85.3604 19.863 84.727 19.6959 84.5387 19.3732C84.3506 19.0505 84.2059 18.84 84.0054 18.84H82.939C82.7366 18.84 82.5929 19.0502 82.4056 19.3732C82.2182 19.6961 81.585 19.863 81.2569 19.5361C80.8615 19.1405 80.5659 18.6183 80.4759 18.2775C80.4261 18.0907 80.4148 17.8957 80.4426 17.7044C80.4705 17.5131 80.5369 17.3294 80.6379 17.1645C80.8401 16.8772 81.2389 16.7062 81.6223 16.7062H83.4744ZM89.7844 14.8241C89.5782 15.3151 89.3388 15.7914 89.0678 16.2498C88.8948 16.5464 88.6914 16.8933 88.4709 17.2243C88.4881 16.8632 88.4215 16.5031 88.2765 16.172C87.6562 15.0902 83.4761 15.1053 83.4761 15.1053C83.4761 15.1053 79.2951 15.0912 78.6758 16.172C78.5309 16.5031 78.4645 16.8632 78.4816 17.2243C78.2621 16.8933 78.0577 16.5464 77.8845 16.2498C77.6137 15.7913 77.3743 15.315 77.1681 14.8241C76.9283 14.2494 76.9283 14.1389 76.9283 13.4145C76.9283 12.94 77.2066 11.6085 77.2854 11.2399L77.5891 11.2633C77.4645 12.0405 77.3645 13.3659 78.0182 13.793C78.4077 14.046 79.0412 14.1594 80.0703 14.1594C80.2278 14.1594 80.3881 14.1594 80.5457 14.1535C81.5706 14.1282 82.1455 13.8782 82.5956 13.2598C82.7926 12.9658 82.9409 12.6419 83.0349 12.3007H83.9152C84.0092 12.6419 84.1575 12.9657 84.3543 13.2598C84.8036 13.8782 85.3782 14.1291 86.4044 14.1535C86.562 14.1535 86.722 14.1594 86.8798 14.1594C87.9089 14.1594 88.5421 14.046 88.9319 13.793C89.5856 13.3681 89.4854 12.0424 89.361 11.2633L89.6644 11.2399C89.7434 11.6082 90.0217 12.9408 90.0217 13.4145C90.02 14.1389 90.02 14.2492 89.7844 14.8241Z" fill="black"/>
<path d="M7.00443 6.88076C7.00443 5.72018 7.95547 5.22113 9.02799 5.22113C10.9769 5.22113 13.2566 6.96467 14.3706 6.96467C15.7873 6.96467 16.8183 5.6775 16.8183 4.31154C16.8235 1.36596 12.3056 0 9.3629 0C4.64059 0 1.28302 2.81606 1.28302 6.96077C1.28302 13.7959 11.6436 13.381 11.6436 16.118C11.6436 17.2371 11.1023 17.815 9.27997 17.815C6.4639 17.815 5.4287 15.7912 3.10755 15.7912C1.44815 15.7851 0.537354 17.5264 0.537354 18.4353C0.537354 21.1299 5.51163 23.0371 8.86408 23.0371C14.0064 23.0371 17.3637 20.0117 17.3637 16.0339C17.3598 9.23655 7.00443 9.65121 7.00443 6.88076V6.88076ZM36.6713 15.4138C35.0958 15.4138 32.983 17.8152 29.9149 17.8152C27.1403 17.8152 24.6928 16.449 24.283 13.5066H37.0023C38.8237 13.5066 39.613 12.6346 39.613 10.8535C39.614 5.8841 35.3458 0.000245648 28.8812 0.000245648C22.5822 0.000245648 18.1897 5.5109 18.1897 11.5589C18.1897 18.1472 22.6651 23.0376 29.3798 23.0376C33.8138 23.0376 39.1149 20.5525 39.1149 17.9833C39.1149 16.6959 37.9533 15.4138 36.6713 15.4138V15.4138ZM28.88 4.97037C31.6546 4.97037 33.314 6.9193 33.645 9.52998H24.1577C24.4472 7.00345 26.2281 4.97037 28.8812 4.97037H28.88V4.97037ZM53.2043 0C50.3882 0 48.6012 0.825666 47.4468 2.44262C47.2375 1.07666 46.2437 0.246846 44.7148 0.246846C42.9754 0.246846 41.731 1.57134 41.731 3.56173V19.4702C41.731 21.4616 42.9757 22.7851 44.7148 22.7851C46.454 22.7851 47.6907 21.4616 47.6907 19.4702V9.07337C47.6907 6.751 49.0566 4.97013 51.5005 4.97013C53.6587 4.97013 55.3981 6.29462 55.3981 9.07337V19.4705C55.3981 21.4619 56.6387 22.7854 58.3822 22.7854C60.1255 22.7854 61.3661 21.4609 61.3661 19.4705V8.03646C61.369 2.979 57.8861 0 53.2043 0V0ZM67.6678 0.247092C65.9245 0.247092 64.6839 1.57158 64.6839 3.56198V19.4705C64.6839 21.4619 65.9245 22.7854 67.6678 22.7854C69.4113 22.7854 70.6468 21.4609 70.6468 19.4705V3.56198C70.6468 1.57158 69.4062 0.247092 67.6678 0.247092ZM107.154 0.247092C105.289 0.247092 104.086 1.07691 102.972 2.73215H102.888C102.888 0.824694 101.559 0.247092 99.9875 0.247092C98.4952 0.247092 96.9197 1.23985 96.9197 3.23098V19.4705C96.9197 21.4619 98.1645 22.7854 99.9036 22.7854C101.643 22.7854 102.888 21.4609 102.888 19.4705V10.3132C102.888 7.95353 104.709 7.16639 106.492 6.33658C108.275 5.50676 110.053 5.38553 110.053 3.4366C110.054 1.28205 108.605 0.247092 107.154 0.247092V0.247092Z" fill="#3179FF"/>
<path d="M111.987 20.2485C112.305 20.2485 112.611 20.375 112.836 20.6003C113.061 20.8255 113.188 21.131 113.188 21.4496C113.188 21.7681 113.061 22.0736 112.836 22.2989C112.611 22.5241 112.305 22.6506 111.987 22.6506C111.668 22.6506 111.363 22.5241 111.137 22.2989C110.912 22.0736 110.786 21.7681 110.786 21.4496C110.786 21.131 110.912 20.8255 111.137 20.6003C111.363 20.375 111.668 20.2485 111.987 20.2485ZM122.066 22.6748C121.372 22.6748 120.922 22.2994 120.827 21.6801C120.302 22.4118 119.495 22.7872 118.219 22.7872C116.094 22.7872 114.523 21.4364 114.523 19.1443V13.9636C114.523 13.0631 115.085 12.4621 115.873 12.4621C116.661 12.4621 117.224 13.0621 117.224 13.9636V18.674C117.224 19.9307 118.012 20.5317 118.988 20.5317C120.095 20.5317 120.714 19.7224 120.714 18.674V13.9636C120.714 13.0631 121.277 12.4621 122.065 12.4621C122.853 12.4621 123.416 13.0621 123.416 13.9636V21.1691C123.417 22.0747 122.853 22.6748 122.066 22.6748V22.6748ZM128.351 22.7882C126.175 22.7882 124.617 21.6813 124.617 19.5604C124.617 16.4458 128.276 16.0511 130.773 16.0511V15.3196C130.773 14.7944 130.341 14.6115 129.591 14.6115C128.014 14.6115 127.733 15.5313 127.02 15.5313C126.176 15.5313 125.838 14.9313 125.838 14.3868C125.838 13.2982 127.996 12.3633 129.59 12.3633C132.086 12.3633 133.475 13.4329 133.475 15.3847V21.2393C133.475 22.0277 132.95 22.6843 132.16 22.6843C131.578 22.6843 131.09 22.5348 130.884 21.6898C130.416 22.4128 129.253 22.7882 128.351 22.7882V22.7882ZM128.839 20.5368C130.247 20.5368 130.884 19.8053 130.884 18.5133V18.0813C129.252 18.0813 127.206 17.9122 127.206 19.5636C127.207 20.2919 128.033 20.541 128.84 20.541L128.839 20.5368V20.5368Z" fill="black"/>
<path d="M7.24188 31.5872H4.23193V39.9353H3.00351V31.5872H0V30.571H7.24188V31.5872Z" fill="#9F9F9F"/>
<path d="M9.7373 39.9353H8.54747V32.9764H9.7373V39.9353ZM8.451 31.1306C8.451 30.9376 8.50888 30.7747 8.62465 30.6418C8.74471 30.5088 8.9205 30.4424 9.15203 30.4424C9.38357 30.4424 9.55936 30.5088 9.67942 30.6418C9.79947 30.7747 9.8595 30.9376 9.8595 31.1306C9.8595 31.3235 9.79947 31.4843 9.67942 31.6129C9.55936 31.7415 9.38357 31.8059 9.15203 31.8059C8.9205 31.8059 8.74471 31.7415 8.62465 31.6129C8.50888 31.4843 8.451 31.3235 8.451 31.1306Z" fill="#9F9F9F"/>
<path d="M17.3522 32.9764V39.9353H16.1559V33.9604H13.7892L13.6477 36.5652C13.5705 37.7614 13.369 38.6168 13.0431 39.1313C12.7215 39.6459 12.2091 39.9138 11.506 39.9353H11.03V38.887L11.3709 38.8612C11.7568 38.8183 12.0333 38.5954 12.2006 38.1923C12.3678 37.7893 12.475 37.0433 12.5221 35.9542L12.6508 32.9764H17.3522Z" fill="#9F9F9F"/>
<path d="M20.5615 35.3753H22.3688C23.1577 35.3839 23.7816 35.5897 24.2403 35.9928C24.6991 36.3958 24.9285 36.9425 24.9285 37.6328C24.9285 38.3274 24.6927 38.8848 24.2211 39.305C23.7494 39.7252 23.1148 39.9353 22.3173 39.9353H19.3717V32.9764H20.5615V35.3753ZM20.5615 36.3465V38.9641H22.3302C22.7761 38.9641 23.1213 38.8505 23.3657 38.6233C23.6101 38.3917 23.7323 38.0766 23.7323 37.6778C23.7323 37.2919 23.6122 36.9768 23.3721 36.7324C23.1363 36.4837 22.804 36.3551 22.3752 36.3465H20.5615Z" fill="#9F9F9F"/>
<path d="M28.5816 36.9704H27.7134V39.9353H26.5171V32.9764H27.7134V35.922H28.4916L30.8326 32.9764H32.2733L29.5206 36.3208L32.5048 39.9353H30.9934L28.5816 36.9704Z" fill="#9F9F9F"/>
<path d="M38.0295 32.9764H39.2193V39.9353H38.0295V34.8608L34.8202 39.9353H33.6303V32.9764H34.8202V38.0573L38.0295 32.9764Z" fill="#9F9F9F"/>
<path d="M50.0821 39.9353H48.8923V36.9639H45.6959V39.9353H44.4996V32.9764H45.6959V35.9928H48.8923V32.9764H50.0821V39.9353Z" fill="#9F9F9F"/>
<path d="M56.295 39.9353C56.2264 39.7981 56.1706 39.5537 56.1278 39.2021C55.5746 39.7766 54.9143 40.0639 54.1469 40.0639C53.4608 40.0639 52.897 39.871 52.4554 39.4851C52.018 39.0949 51.7994 38.6018 51.7994 38.0058C51.7994 37.2812 52.0738 36.7195 52.6226 36.3208C53.1757 35.9177 53.9518 35.7162 54.9508 35.7162H56.1085V35.1695C56.1085 34.7536 55.9841 34.4235 55.7354 34.1791C55.4868 33.9304 55.1202 33.8061 54.6356 33.8061C54.2112 33.8061 53.8553 33.9133 53.568 34.1276C53.2807 34.342 53.1371 34.6014 53.1371 34.9058H51.9408C51.9408 34.5585 52.063 34.2241 52.3074 33.9025C52.5561 33.5767 52.8906 33.3194 53.3108 33.1308C53.7352 32.9421 54.2005 32.8478 54.7064 32.8478C55.5082 32.8478 56.1363 33.0493 56.5908 33.4523C57.0453 33.8511 57.2811 34.402 57.2983 35.1052V38.3081C57.2983 38.947 57.3798 39.4551 57.5427 39.8324V39.9353H56.295ZM54.3205 39.0284C54.6935 39.0284 55.0473 38.932 55.3817 38.739C55.7161 38.5461 55.9584 38.2953 56.1085 37.9865V36.5587H55.1759C53.7181 36.5587 52.9892 36.9854 52.9892 37.8386C52.9892 38.2116 53.1135 38.5032 53.3622 38.7133C53.6109 38.9234 53.9303 39.0284 54.3205 39.0284Z" fill="#9F9F9F"/>
<path d="M63.6655 32.9764H64.8553V39.9353H63.6655V34.8608L60.4562 39.9353H59.2663V32.9764H60.4562V38.0573L63.6655 32.9764ZM63.9871 30.4424C63.9871 30.9612 63.8091 31.3792 63.4532 31.6965C63.1017 32.0095 62.6386 32.166 62.064 32.166C61.4895 32.166 61.0243 32.0074 60.6684 31.6901C60.3125 31.3728 60.1346 30.9569 60.1346 30.4424H61.1057C61.1057 30.7425 61.1872 30.9783 61.3501 31.1498C61.5131 31.3171 61.751 31.4007 62.064 31.4007C62.3642 31.4007 62.5979 31.3171 62.7651 31.1498C62.9366 30.9826 63.0223 30.7468 63.0223 30.4424H63.9871Z" fill="#9F9F9F"/>
<path d="M66.8684 32.9764H68.0646V38.9641H71.2675V32.9764H72.4574V38.9641H73.287L73.1713 41.9998H72.1036V39.9353H66.8684V32.9764Z" fill="#9F9F9F"/>
<path d="M75.8661 39.9353H74.6762V32.9764H75.8661V39.9353ZM74.5798 31.1306C74.5798 30.9376 74.6376 30.7747 74.7534 30.6418C74.8735 30.5088 75.0493 30.4424 75.2808 30.4424C75.5123 30.4424 75.6881 30.5088 75.8082 30.6418C75.9282 30.7747 75.9883 30.9376 75.9883 31.1306C75.9883 31.3235 75.9282 31.4843 75.8082 31.6129C75.6881 31.7415 75.5123 31.8059 75.2808 31.8059C75.0493 31.8059 74.8735 31.7415 74.7534 31.6129C74.6376 31.4843 74.5798 31.3235 74.5798 31.1306Z" fill="#9F9F9F"/>
<path d="M79.9436 36.9704H79.0754V39.9353H77.8791V32.9764H79.0754V35.922H79.8536L82.1947 32.9764H83.6353L80.8826 36.3208L83.8668 39.9353H82.3554L79.9436 36.9704Z" fill="#9F9F9F"/>
<path d="M89.1857 39.9353C89.1171 39.7981 89.0614 39.5537 89.0185 39.2021C88.4654 39.7766 87.8051 40.0639 87.0376 40.0639C86.3516 40.0639 85.7877 39.871 85.3461 39.4851C84.9088 39.0949 84.6901 38.6018 84.6901 38.0058C84.6901 37.2812 84.9645 36.7195 85.5133 36.3208C86.0664 35.9177 86.8425 35.7162 87.8415 35.7162H88.9992V35.1695C88.9992 34.7536 88.8748 34.4235 88.6262 34.1791C88.3775 33.9304 88.0109 33.8061 87.5264 33.8061C87.1019 33.8061 86.746 33.9133 86.4587 34.1276C86.1715 34.342 86.0278 34.6014 86.0278 34.9058H84.8316C84.8316 34.5585 84.9538 34.2241 85.1982 33.9025C85.4469 33.5767 85.7813 33.3194 86.2015 33.1308C86.626 32.9421 87.0912 32.8478 87.5971 32.8478C88.3989 32.8478 89.0271 33.0493 89.4816 33.4523C89.936 33.8511 90.1719 34.402 90.189 35.1052V38.3081C90.189 38.947 90.2705 39.4551 90.4334 39.8324V39.9353H89.1857ZM87.2112 39.0284C87.5843 39.0284 87.938 38.932 88.2724 38.739C88.6069 38.5461 88.8491 38.2953 88.9992 37.9865V36.5587H88.0666C86.6088 36.5587 85.8799 36.9854 85.8799 37.8386C85.8799 38.2116 86.0043 38.5032 86.2529 38.7133C86.5016 38.9234 86.8211 39.0284 87.2112 39.0284Z" fill="#9F9F9F"/>
<path d="M92.1635 39.9353V32.9764H94.8776C95.8037 32.9764 96.5133 33.1393 97.0064 33.4652C97.5038 33.7868 97.7525 34.2606 97.7525 34.8866C97.7525 35.2081 97.656 35.4997 97.4631 35.7612C97.2701 36.0185 96.985 36.2157 96.6077 36.3529C97.0279 36.4516 97.3644 36.6445 97.6174 36.9318C97.8747 37.219 98.0033 37.5621 98.0033 37.9608C98.0033 38.5997 97.7675 39.0885 97.2958 39.4272C96.8285 39.7659 96.166 39.9353 95.3085 39.9353H92.1635ZM93.3533 36.8803V38.977H95.3214C95.8187 38.977 96.1896 38.8848 96.434 38.7004C96.6827 38.5161 96.807 38.2567 96.807 37.9222C96.807 37.2276 96.2968 36.8803 95.2763 36.8803H93.3533ZM93.3533 35.9285H94.8905C96.0052 35.9285 96.5626 35.6026 96.5626 34.9509C96.5626 34.2991 96.0353 33.9626 94.9805 33.9411H93.3533V35.9285Z" fill="#9F9F9F"/>
<path d="M100.872 39.9353H99.6819V32.9764H100.872V39.9353ZM99.5855 31.1306C99.5855 30.9376 99.6433 30.7747 99.7591 30.6418C99.8792 30.5088 100.055 30.4424 100.286 30.4424C100.518 30.4424 100.694 30.5088 100.814 30.6418C100.934 30.7747 100.994 30.9376 100.994 31.1306C100.994 31.3235 100.934 31.4843 100.814 31.6129C100.694 31.7415 100.518 31.8059 100.286 31.8059C100.055 31.8059 99.8792 31.7415 99.7591 31.6129C99.6433 31.4843 99.5855 31.3235 99.5855 31.1306Z" fill="#9F9F9F"/>
<path d="M104.081 32.9764V38.9641H106.628V32.9764H107.818V38.9641H110.358V32.9764H111.554V39.9353H102.885V32.9764H104.081Z" fill="#9F9F9F"/>
<path d="M116.32 40.0639C115.377 40.0639 114.609 39.7552 114.018 39.1378C113.426 38.5161 113.13 37.6864 113.13 36.6488V36.4301C113.13 35.7398 113.261 35.1245 113.523 34.5843C113.788 34.0397 114.157 33.6153 114.629 33.3108C115.105 33.0021 115.619 32.8478 116.172 32.8478C117.077 32.8478 117.78 33.1458 118.282 33.7417C118.783 34.3377 119.034 35.191 119.034 36.3015V36.7967H114.32C114.337 37.4827 114.537 38.038 114.918 38.4625C115.304 38.8827 115.793 39.0928 116.385 39.0928C116.805 39.0928 117.161 39.007 117.452 38.8355C117.744 38.664 117.999 38.4367 118.218 38.1538L118.944 38.7197C118.361 39.6159 117.486 40.0639 116.32 40.0639ZM116.172 33.8254C115.692 33.8254 115.289 34.0011 114.963 34.3527C114.637 34.7 114.436 35.1888 114.359 35.8191H117.844V35.7291C117.81 35.1245 117.647 34.6572 117.356 34.327C117.064 33.9926 116.67 33.8254 116.172 33.8254Z" fill="#9F9F9F"/>
</svg>
