<?xml version="1.0" encoding="utf-8"?>
<!-- Generator: Adobe Illustrator 24.0.1, SVG Export Plug-In . SVG Version: 6.00 Build 0)  -->
<svg version="1.1" id="Слой_1" xmlns="http://www.w3.org/2000/svg" xmlns:xlink="http://www.w3.org/1999/xlink" x="0px" y="0px"
	 width="67px" height="24px" viewBox="0 0 67 24" enable-background="new 0 0 67 24" xml:space="preserve">
<g>
	<path d="M23.5,5v4.3c0,0.1,0.1,0.2,0.2,0.2H25c0.1,0,0.2-0.1,0.2-0.2V5l3.1-4.5c0.1-0.2,0-0.4-0.2-0.4h-1.4c-0.1,0-0.2,0.1-0.2,0.1
		l-2.1,3.1l-2.1-3.1c0-0.1-0.1-0.1-0.2-0.1h-1.4c-0.2,0-0.3,0.2-0.2,0.4L23.5,5z M34.2,9.6c2.7,0,4.8-2.1,4.8-4.8S36.9,0,34.2,0
		s-4.8,2.2-4.8,4.8S31.5,9.6,34.2,9.6z M34.2,1.7c1.7,0,3.1,1.4,3.1,3.1c0,1.7-1.4,3.1-3.1,3.1s-3.1-1.4-3.1-3.1
		C31.1,3.1,32.5,1.7,34.2,1.7z M44.6,9.6c2.1,0,3.7-1.6,3.7-3.7V0.4c0-0.1-0.1-0.2-0.2-0.2h-1.3c-0.1,0-0.2,0.1-0.2,0.2v5.5
		c0,1.1-0.8,2-2,2c-1.2,0-1.9-0.9-1.9-2V0.4c0-0.1-0.1-0.2-0.2-0.2h-1.3c-0.1,0-0.2,0.1-0.2,0.2V6C40.8,8,42.4,9.6,44.6,9.6
		L44.6,9.6z M7.6,21.5c-0.1-0.1-0.2-0.1-0.3,0c-0.6,0.5-1.2,0.8-2.1,0.8c-1.7,0-3-1.4-3-3.1c0-1.7,1.3-3.1,3-3.1
		c0.7,0,1.5,0.3,2.1,0.8c0.1,0.1,0.2,0.1,0.3,0L8.4,16c0.1-0.1,0.1-0.3,0-0.4c-0.9-0.8-1.9-1.2-3.2-1.2c-2.7,0-4.8,2.1-4.8,4.8
		S2.5,24,5.1,24c1.2,0,2.3-0.4,3.2-1.3c0.1-0.1,0.1-0.3,0-0.4C8.4,22.3,7.6,21.5,7.6,21.5z M14.2,14.4c-2.7,0-4.8,2.2-4.8,4.8
		s2.1,4.8,4.8,4.8s4.8-2.1,4.8-4.8S16.9,14.4,14.2,14.4z M14.2,22.3c-1.7,0-3.1-1.4-3.1-3.1c0-1.7,1.4-3.1,3.1-3.1s3.1,1.4,3.1,3.1
		C17.3,20.9,15.9,22.3,14.2,22.3z M28.5,14.5h-1.2c-0.1,0-0.2,0.1-0.2,0.2v5.5h0l-5.6-5.9h-0.3c-0.1,0-0.2,0.1-0.2,0.2v9
		c0,0.1,0.1,0.2,0.2,0.2h1.2c0.1,0,0.2-0.1,0.2-0.2v-5.8h0l5.6,6.2h0.3c0.1,0,0.2-0.1,0.2-0.2v-9C28.7,14.6,28.6,14.5,28.5,14.5
		L28.5,14.5z M66.5,22.3h-3.4v-7.5c0-0.1-0.1-0.2-0.2-0.2h-1.2c-0.1,0-0.2,0.1-0.2,0.2v8.9c0,0.1,0.1,0.2,0.2,0.2h4.9
		c0.1,0,0.2-0.1,0.2-0.2v-1.1C66.8,22.4,66.7,22.3,66.5,22.3z M47.5,17.4c0-1.6-1.3-2.9-2.9-2.9h-3.8c-0.1,0-0.2,0.1-0.2,0.2v8.9
		c0,0.1,0.1,0.2,0.2,0.2H42c0.1,0,0.2-0.1,0.2-0.2v-3.4h1.5l1.8,3.5c0,0.1,0.1,0.1,0.2,0.1h1.4c0.2,0,0.3-0.2,0.2-0.4l-1.8-3.4
		C46.7,19.6,47.5,18.6,47.5,17.4L47.5,17.4z M44.5,18.8h-2.2v-2.7h2.2c0.7,0,1.3,0.6,1.3,1.3C45.8,18.2,45.2,18.8,44.5,18.8z
		 M54.2,14.4c-2.7,0-4.8,2.2-4.8,4.8s2.1,4.8,4.8,4.8s4.8-2.1,4.8-4.8S56.9,14.4,54.2,14.4z M54.2,22.3c-1.7,0-3.1-1.4-3.1-3.1
		c0-1.7,1.4-3.1,3.1-3.1s3.1,1.4,3.1,3.1C57.3,20.9,55.9,22.3,54.2,22.3z"/>
	<path d="M66.7,12.6v-1.1c0-0.1-0.1-0.2-0.2-0.2H0.8c-0.1,0-0.2,0.1-0.2,0.2v1.1c0,0.1,0.1,0.2,0.2,0.2h32.6v10.7
		c0,0.1,0.1,0.2,0.2,0.2h1.2c0.1,0,0.2-0.1,0.2-0.2V12.9h31.4C66.6,12.9,66.7,12.7,66.7,12.6z"/>
</g>
</svg>
