<svg width="135" height="28" viewBox="0 0 135 28" fill="none" xmlns="http://www.w3.org/2000/svg">
<path d="M31.7188 20.0078C32.5078 20.0078 33.1562 19.9258 33.6641 19.7617C34.5703 19.457 35.3125 18.8711 35.8906 18.0039C36.3516 17.3086 36.6836 16.418 36.8867 15.332C37.0039 14.6836 37.0625 14.082 37.0625 13.5273C37.0625 11.3945 36.6367 9.73828 35.7852 8.55859C34.9414 7.37891 33.5781 6.78906 31.6953 6.78906H27.5586V20.0078H31.7188ZM25.2148 4.78516H32.1875C34.5547 4.78516 36.3906 5.625 37.6953 7.30469C38.8594 8.82031 39.4414 10.7617 39.4414 13.1289C39.4414 14.957 39.0977 16.6094 38.4102 18.0859C37.1992 20.6953 35.1172 22 32.1641 22H25.2148V4.78516ZM47.3984 9.16797C48.2891 9.16797 49.1523 9.37891 49.9883 9.80078C50.8242 10.2148 51.4609 10.7539 51.8984 11.418C52.3203 12.0508 52.6016 12.7891 52.7422 13.6328C52.8672 14.2109 52.9297 15.1328 52.9297 16.3984H43.7305C43.7695 17.6719 44.0703 18.6953 44.6328 19.4688C45.1953 20.2344 46.0664 20.6172 47.2461 20.6172C48.3477 20.6172 49.2266 20.2539 49.8828 19.5273C50.2578 19.1055 50.5234 18.6172 50.6797 18.0625H52.7539C52.6992 18.5234 52.5156 19.0391 52.2031 19.6094C51.8984 20.1719 51.5547 20.6328 51.1719 20.9922C50.5312 21.6172 49.7383 22.0391 48.793 22.2578C48.2852 22.3828 47.7109 22.4453 47.0703 22.4453C45.5078 22.4453 44.1836 21.8789 43.0977 20.7461C42.0117 19.6055 41.4688 18.0117 41.4688 15.9648C41.4688 13.9492 42.0156 12.3125 43.1094 11.0547C44.2031 9.79688 45.6328 9.16797 47.3984 9.16797ZM50.7617 14.7227C50.6758 13.8086 50.4766 13.0781 50.1641 12.5312C49.5859 11.5156 48.6211 11.0078 47.2695 11.0078C46.3008 11.0078 45.4883 11.3594 44.832 12.0625C44.1758 12.7578 43.8281 13.6445 43.7891 14.7227H50.7617ZM56.5625 9.44922L59.9141 19.668L63.418 9.44922H65.7266L60.9922 22H58.7422L54.1133 9.44922H56.5625ZM69.3359 16.4453C69.3906 17.4219 69.6211 18.2148 70.0273 18.8242C70.8008 19.9648 72.1641 20.5352 74.1172 20.5352C74.9922 20.5352 75.7891 20.4102 76.5078 20.1602C77.8984 19.6758 78.5938 18.8086 78.5938 17.5586C78.5938 16.6211 78.3008 15.9531 77.7148 15.5547C77.1211 15.1641 76.1914 14.8242 74.9258 14.5352L72.5938 14.0078C71.0703 13.6641 69.9922 13.2852 69.3594 12.8711C68.2656 12.1523 67.7188 11.0781 67.7188 9.64844C67.7188 8.10156 68.2539 6.83203 69.3242 5.83984C70.3945 4.84766 71.9102 4.35156 73.8711 4.35156C75.6758 4.35156 77.207 4.78906 78.4648 5.66406C79.7305 6.53125 80.3633 7.92188 80.3633 9.83594H78.1719C78.0547 8.91406 77.8047 8.20703 77.4219 7.71484C76.7109 6.81641 75.5039 6.36719 73.8008 6.36719C72.4258 6.36719 71.4375 6.65625 70.8359 7.23438C70.2344 7.8125 69.9336 8.48438 69.9336 9.25C69.9336 10.0938 70.2852 10.7109 70.9883 11.1016C71.4492 11.3516 72.4922 11.6641 74.1172 12.0391L76.5312 12.5898C77.6953 12.8555 78.5938 13.2188 79.2266 13.6797C80.3203 14.4844 80.8672 15.6523 80.8672 17.1836C80.8672 19.0898 80.1719 20.4531 78.7812 21.2734C77.3984 22.0938 75.7891 22.5039 73.9531 22.5039C71.8125 22.5039 70.1367 21.957 68.9258 20.8633C67.7148 19.7773 67.1211 18.3047 67.1445 16.4453H69.3359ZM88.8359 20.582C89.8203 20.582 90.6367 20.1719 91.2852 19.3516C91.9414 18.5234 92.2695 17.2891 92.2695 15.6484C92.2695 14.6484 92.125 13.7891 91.8359 13.0703C91.2891 11.6875 90.2891 10.9961 88.8359 10.9961C87.375 10.9961 86.375 11.7266 85.8359 13.1875C85.5469 13.9688 85.4023 14.9609 85.4023 16.1641C85.4023 17.1328 85.5469 17.957 85.8359 18.6367C86.3828 19.9336 87.3828 20.582 88.8359 20.582ZM83.375 9.50781H85.4258V11.1719C85.8477 10.6016 86.3086 10.1602 86.8086 9.84766C87.5195 9.37891 88.3555 9.14453 89.3164 9.14453C90.7383 9.14453 91.9453 9.69141 92.9375 10.7852C93.9297 11.8711 94.4258 13.4258 94.4258 15.4492C94.4258 18.1836 93.7109 20.1367 92.2812 21.3086C91.375 22.0508 90.3203 22.4219 89.1172 22.4219C88.1719 22.4219 87.3789 22.2148 86.7383 21.8008C86.3633 21.5664 85.9453 21.1641 85.4844 20.5938V27.0039H83.375V9.50781ZM98.5156 18.6602C98.5156 19.2695 98.7383 19.75 99.1836 20.1016C99.6289 20.4531 100.156 20.6289 100.766 20.6289C101.508 20.6289 102.227 20.457 102.922 20.1133C104.094 19.543 104.68 18.6094 104.68 17.3125V15.6133C104.422 15.7773 104.09 15.9141 103.684 16.0234C103.277 16.1328 102.879 16.2109 102.488 16.2578L101.211 16.4219C100.445 16.5234 99.8711 16.6836 99.4883 16.9023C98.8398 17.2695 98.5156 17.8555 98.5156 18.6602ZM103.625 14.3945C104.109 14.332 104.434 14.1289 104.598 13.7852C104.691 13.5977 104.738 13.3281 104.738 12.9766C104.738 12.2578 104.48 11.7383 103.965 11.418C103.457 11.0898 102.727 10.9258 101.773 10.9258C100.672 10.9258 99.8906 11.2227 99.4297 11.8164C99.1719 12.1445 99.0039 12.6328 98.9258 13.2812H96.957C96.9961 11.7344 97.4961 10.6602 98.457 10.0586C99.4258 9.44922 100.547 9.14453 101.82 9.14453C103.297 9.14453 104.496 9.42578 105.418 9.98828C106.332 10.5508 106.789 11.4258 106.789 12.6133V19.8438C106.789 20.0625 106.832 20.2383 106.918 20.3711C107.012 20.5039 107.203 20.5703 107.492 20.5703C107.586 20.5703 107.691 20.5664 107.809 20.5586C107.926 20.543 108.051 20.5234 108.184 20.5V22.0586C107.855 22.1523 107.605 22.2109 107.434 22.2344C107.262 22.2578 107.027 22.2695 106.73 22.2695C106.004 22.2695 105.477 22.0117 105.148 21.4961C104.977 21.2227 104.855 20.8359 104.785 20.3359C104.355 20.8984 103.738 21.3867 102.934 21.8008C102.129 22.2148 101.242 22.4219 100.273 22.4219C99.1094 22.4219 98.1562 22.0703 97.4141 21.3672C96.6797 20.6562 96.3125 19.7695 96.3125 18.707C96.3125 17.543 96.6758 16.6406 97.4023 16C98.1289 15.3594 99.082 14.9648 100.262 14.8164L103.625 14.3945ZM115.098 9.08594C116.512 9.08594 117.66 9.42969 118.543 10.1172C119.434 10.8047 119.969 11.9883 120.148 13.668H118.098C117.973 12.8945 117.688 12.2539 117.242 11.7461C116.797 11.2305 116.082 10.9727 115.098 10.9727C113.754 10.9727 112.793 11.6289 112.215 12.9414C111.84 13.793 111.652 14.8438 111.652 16.0938C111.652 17.3516 111.918 18.4102 112.449 19.2695C112.98 20.1289 113.816 20.5586 114.957 20.5586C115.832 20.5586 116.523 20.293 117.031 19.7617C117.547 19.2227 117.902 18.4883 118.098 17.5586H120.148C119.914 19.2227 119.328 20.4414 118.391 21.2148C117.453 21.9805 116.254 22.3633 114.793 22.3633C113.152 22.3633 111.844 21.7656 110.867 20.5703C109.891 19.3672 109.402 17.8672 109.402 16.0703C109.402 13.8672 109.938 12.1523 111.008 10.9258C112.078 9.69922 113.441 9.08594 115.098 9.08594ZM127.484 9.16797C128.375 9.16797 129.238 9.37891 130.074 9.80078C130.91 10.2148 131.547 10.7539 131.984 11.418C132.406 12.0508 132.688 12.7891 132.828 13.6328C132.953 14.2109 133.016 15.1328 133.016 16.3984H123.816C123.855 17.6719 124.156 18.6953 124.719 19.4688C125.281 20.2344 126.152 20.6172 127.332 20.6172C128.434 20.6172 129.312 20.2539 129.969 19.5273C130.344 19.1055 130.609 18.6172 130.766 18.0625H132.84C132.785 18.5234 132.602 19.0391 132.289 19.6094C131.984 20.1719 131.641 20.6328 131.258 20.9922C130.617 21.6172 129.824 22.0391 128.879 22.2578C128.371 22.3828 127.797 22.4453 127.156 22.4453C125.594 22.4453 124.27 21.8789 123.184 20.7461C122.098 19.6055 121.555 18.0117 121.555 15.9648C121.555 13.9492 122.102 12.3125 123.195 11.0547C124.289 9.79688 125.719 9.16797 127.484 9.16797ZM130.848 14.7227C130.762 13.8086 130.562 13.0781 130.25 12.5312C129.672 11.5156 128.707 11.0078 127.355 11.0078C126.387 11.0078 125.574 11.3594 124.918 12.0625C124.262 12.7578 123.914 13.6445 123.875 14.7227H130.848Z" fill="white"/>
<path d="M13.6351 19.6508C13.4701 19.6232 13.3213 19.7854 13.3021 20.0115C13.2829 20.2375 13.4005 20.4422 13.5649 20.4685C16.7197 20.9783 18.4 22.3518 18.4 23.1478C18.4 24.2652 15.2044 25.8241 10 25.8241C4.7956 25.8241 1.6 24.2652 1.6 23.1478C1.6 22.3518 3.2803 20.9783 6.4351 20.4685C6.5995 20.4422 6.7171 20.2371 6.6979 20.0115C6.6784 19.7854 6.5296 19.6224 6.3649 19.6508C3.2062 20.1614 1 21.5992 1 23.1478C1 24.887 4.0915 26.6476 10 26.6476C15.9085 26.6476 19 24.887 19 23.1478C19 21.5992 16.7938 20.1614 13.6351 19.6508Z" fill="#3347BB" stroke="#3347BB" stroke-width="0.4"/>
<path d="M9.18887 21.5184C9.58791 22.0733 10.4137 22.0733 10.8127 21.5183L16.4012 13.7455C18.8018 10.6634 18.4547 5.59745 15.6581 2.90476C14.147 1.44912 12.1377 0.647583 10.0008 0.647583C7.86387 0.647583 5.8546 1.44912 4.34347 2.90435C1.54693 5.59705 1.19981 10.663 3.59083 13.733L9.18887 21.5184ZM10.0747 5.46888C11.6851 5.46888 12.9951 6.73086 12.9951 8.28131C12.9951 9.83176 11.6851 11.0937 10.0747 11.0937C8.46423 11.0937 7.1542 9.83176 7.1542 8.28131C7.1542 6.73086 8.46423 5.46888 10.0747 5.46888Z" fill="#3347BB"/>
<path d="M16.0067 13.4382L16.0008 13.4458L15.9952 13.4536L10.4067 21.2265C10.2072 21.504 9.79434 21.504 9.59482 21.2265L3.99678 13.4411L3.99119 13.4333L3.9853 13.4258C2.87764 12.0036 2.39018 10.097 2.52062 8.21171C2.65107 6.32641 3.39606 4.51069 4.69027 3.26453L4.6903 3.26451C6.10635 1.90084 7.99054 1.14758 10.0008 1.14758C12.0111 1.14758 13.8952 1.90083 15.3113 3.26486L15.3113 3.26493C16.6055 4.51106 17.3505 6.32669 17.4798 8.2133C17.6091 10.0998 17.1195 12.0096 16.0067 13.4382Z" stroke="#3347BB"/>
</svg>
