<svg version="1.1" id="Layer_1" xmlns="http://www.w3.org/2000/svg" x="0" y="0" width="68" height="13" viewBox="0 0 68 13" xml:space="preserve"><path id="wordmark_3_" fill="#0CAA41" d="M7.5 2.8H6c-.1 0-.2.1-.2.2v.8c-.4-.6-1.2-1.1-2.3-1.1C1.7 2.7.2 4 .2 6.4c0 2.4 1.4 3.7 3.3 3.7 1 0 1.8-.4 2.3-1.1v.5c0 1-.5 1.8-2.1 1.8-.8 0-1.4-.3-2-.8-.1-.1-.2 0-.2 0l-.7 1.2c-.1.1-.1.2 0 .3.7.6 1.7 1 3.1 1 3 0 3.9-1.7 3.9-3.5V3c-.1-.1-.2-.2-.3-.2zM4 8.3c-1.1 0-1.9-.8-1.9-1.9S2.9 4.5 4 4.5s1.9.7 1.9 1.9C5.8 7.6 5.1 8.3 4 8.3zM11.1.2v9.7c0 .1-.1.2-.2.2H9.4c-.1 0-.2-.1-.2-.2V.2c0-.1.1-.2.2-.2H11c.1 0 .1.1.1.2zm4.7 2.5c-1.5 0-2.6.5-3.1 1.5 0 .1 0 .2.1.2l1.1.8c.1.1.2 0 .2 0 .3-.6 1-.8 1.7-.8.8 0 1.2.3 1.2.7v.1c0 .2-.1.3-.4.3l-2 .2c-1.3.1-2.3.9-2.3 2.2 0 1.3 1 2.2 2.4 2.2 1.1 0 1.8-.5 2.2-1.1v.8c0 .1.1.2.2.2h1.6c.1 0 .2-.1.2-.2V5.6c0-2-1-2.9-3.1-2.9zM17 7.1c0 .8-.6 1.5-1.6 1.5-.7 0-1-.3-1-.8 0-.4.3-.7.9-.8l1.7-.2v.3zm9.4.7c0 1.6-1.2 2.3-3.1 2.3-1.3 0-2.4-.4-3.1-1.1v-.2l.9-1.2c.1-.1.2-.1.2 0 .5.5 1.2.8 2.1.8.5 0 .9-.1.9-.5s-.4-.5-1.6-.7c-1.1-.2-2.4-.7-2.4-2.2 0-1.4 1.1-2.3 3-2.3 1.2 0 2.1.4 2.7.9.1.1.1.1 0 .2L25.4 5h-.2c-.4-.4-1.1-.6-1.8-.6-.6 0-.9.2-.9.5 0 .4.4.4 1.7.7 1.1.3 2.2.7 2.2 2.2zm7.2 0c0 1.6-1.2 2.3-3.1 2.3-1.3 0-2.4-.4-3.1-1.1v-.2l.9-1.2c.1-.1.2-.1.2 0 .5.5 1.2.8 2.1.8.5 0 .9-.1.9-.5s-.4-.5-1.6-.7c-1.1-.2-2.4-.7-2.4-2.2 0-1.4 1.1-2.3 3-2.3 1.2 0 2.1.4 2.7.9.1.1.1.1 0 .2L32.6 5h-.2c-.4-.4-1.1-.6-1.8-.6-.6 0-.9.2-.9.5 0 .4.4.4 1.7.7 1.2.3 2.2.7 2.2 2.2zM42 0h-1.6c-.1 0-.2.1-.2.2v3.7c-.5-.7-1.3-1.2-2.4-1.2-1.7 0-3.2 1.3-3.2 3.8s1.5 3.7 3.2 3.7c1 0 1.9-.5 2.4-1.2v.8c0 .1.1.2.2.2H42c.1 0 .2-.1.2-.2V.1S42.1 0 42 0zm-3.5 8.3c-1.1 0-1.9-.8-1.9-1.9s.8-1.9 1.9-1.9c1.1 0 1.9.7 1.9 1.9-.1 1.2-.9 1.9-1.9 1.9zm8.7-5.6c-2.2 0-3.8 1.5-3.8 3.7s1.6 3.7 3.8 3.7c2.2 0 3.8-1.5 3.8-3.7s-1.7-3.7-3.8-3.7zm0 5.6c-1.1 0-1.9-.8-1.9-1.9s.8-1.9 1.9-1.9c1.1 0 1.9.8 1.9 1.9-.1 1.2-.9 1.9-1.9 1.9zm8.6-5.6c-2.2 0-3.8 1.5-3.8 3.7s1.6 3.7 3.8 3.7c2.2 0 3.8-1.5 3.8-3.7.1-2.2-1.5-3.7-3.8-3.7zm0 5.6c-1.1 0-1.9-.8-1.9-1.9s.8-1.9 1.9-1.9c1.1 0 1.9.8 1.9 1.9 0 1.2-.8 1.9-1.9 1.9zM65.9 3c0-.1-.1-.1-.1-.2-.1-.1-.4-.1-.8-.1-1 0-1.9.5-2.3 1.3V3c0-.1-.1-.2-.2-.2H61c-.1 0-.2.1-.2.2v6.8c0 .1.1.2.2.2h1.6c.1 0 .2-.1.2-.2V6.7c0-1.4.9-2 2.2-2 .3 0 .6.1.7.1.1 0 .2 0 .2-.1V3z"/><path fill="#0CAA41" d="M66.7 2.5v-.2s0-.1.1-.1.1-.1.1-.1c0-.1 0-.1.1-.1 0 0 .1 0 .1-.1h.4s.1 0 .1.1l.1.1.1.1s0 .1.1.1v.4s0 .1-.1.1l-.1.1-.1.1s-.1 0-.1.1h-.4C67 3 67 3 67 2.9l-.1-.1-.1-.1s0-.1-.1-.1v-.1zm0 0v.2s0 .1.1.1l.1.1h.4c.1 0 .1-.1.2-.1 0 0 .1-.1.1-.2v-.2-.1-.1s0-.1-.1-.1l-.1-.1s-.1 0-.1-.1H67c-.1 0-.1.1-.2.1 0 0-.1.1-.1.2.1.1 0 .2 0 .3zm.4 0v.3H67v-.7h.4l.1.1v.1l-.1.1.2.3h-.1l-.2-.2h-.2c.1 0 .1 0 0 0zm0-.1h.2v-.1-.1h-.2v.2z"/></svg>