<svg width="66" height="17" viewBox="0 0 66 17" fill="none" xmlns="http://www.w3.org/2000/svg"><path d="M63.97 3.017h.288c.137 0 .232-.02.282-.061a.198.198 0 00.075-.162.197.197 0 00-.037-.117.21.21 0 00-.1-.076.707.707 0 00-.239-.026h-.27v.442zm-.238.828v-1.47h.505c.173 0 .298.014.376.04a.364.364 0 01.185.144.374.374 0 01.069.214.393.393 0 01-.116.28.458.458 0 01-.305.135.4.4 0 01.125.077c.058.058.13.155.216.292l.179.289h-.292l-.13-.232c-.103-.182-.184-.296-.245-.342a.298.298 0 00-.19-.052h-.14v.625h-.237zm.598-1.898c-.192 0-.38.049-.562.147-.18.098-.328.245-.427.424a1.15 1.15 0 00-.003 1.14c.101.18.242.321.424.422a1.143 1.143 0 001.559-.422 1.15 1.15 0 00-.002-1.14 1.057 1.057 0 00-.428-.424 1.172 1.172 0 00-.56-.147zm0-.226c.23 0 .455.059.673.177.216.115.394.29.511.506.123.22.184.448.184.686 0 .236-.06.463-.18.68-.117.214-.293.39-.507.508a1.383 1.383 0 01-1.362 0 1.287 1.287 0 01-.507-.508 1.384 1.384 0 01-.181-.68c0-.238.061-.466.184-.686.118-.215.296-.39.512-.506.22-.118.443-.177.673-.177z" fill="gray"/><path fill-rule="evenodd" clip-rule="evenodd" d="M7.7.03a6.541 6.541 0 00-2.03.398C3.13 1.488 1.362 3.802.562 6.578a11.079 11.079 0 00-.303 1.58c0 .017-.042.547.034.404.075-.126.109-.311.151-.454.387-1.304.859-2.49 1.582-3.617 1.733-2.55 4.517-4.189 7.46-3.28.547.184 1.035.454 1.523.773.092.068.774.606.622.118-.126-.386-.445-.715-.723-.976C9.973.316 8.844 0 7.7.031zm21.486 2.55c-.395 0-.698.136-.908.414-.22.269-.32.673-.32 1.203v3.835c-.488-.538-.992-.925-1.505-1.186a3.714 3.714 0 00-1.12-.337 5.632 5.632 0 00-.773-.05c-1.287 0-2.338.454-3.129 1.362-.79.909-1.186 2.17-1.186 3.794 0 .766.101 1.48.295 2.136.202.656.496 1.228.883 1.716.372.472.842.857 1.379 1.128.53.26 1.102.395 1.724.395.278 0 .547-.026.807-.076a3.17 3.17 0 00.488-.118 4.152 4.152 0 001.102-.572c.346-.252.682-.58 1.035-.975v.251c0 .48.118.842.345 1.103.227.252.53.387.883.387.345 0 .648-.126.875-.37.227-.253.336-.623.336-1.12V4.061c0-.479-.1-.849-.311-1.101-.218-.252-.522-.38-.9-.38zm31.743 0c-.395 0-.698.136-.908.414-.21.269-.32.673-.32 1.203v3.835c-.488-.538-.992-.925-1.505-1.186a3.643 3.643 0 00-1.12-.337 5.633 5.633 0 00-.773-.05c-1.286 0-2.33.454-3.129 1.362-.79.909-1.186 2.17-1.186 3.794 0 .766.101 1.48.303 2.136.202.656.488 1.228.875 1.716.372.472.843.857 1.38 1.128.529.26 1.101.395 1.724.395.285 0 .554-.026.807-.076.168-.025.328-.067.487-.118a4.145 4.145 0 001.102-.572c.345-.252.69-.58 1.035-.975v.251c0 .48.118.842.345 1.103.235.252.53.387.883.387.362 0 .656-.126.883-.37.228-.253.345-.623.345-1.12V4.061c0-.479-.11-.849-.32-1.101-.218-.252-.512-.38-.908-.38zm-53.891.702a2.118 2.118 0 00-1.024.233 2.126 2.126 0 00-.934 2.868 2.126 2.126 0 002.868.934 2.126 2.126 0 00.934-2.867 2.124 2.124 0 00-1.844-1.168zm29.306 3.143a5.95 5.95 0 00-2.052.37 4.432 4.432 0 00-1.615 1.077 4.721 4.721 0 00-1.002 1.69 6.503 6.503 0 00-.344 2.137c0 1.632.47 2.91 1.396 3.86.875.901 2.078 1.371 3.617 1.422.092.008.176.009.269.009.732 0 1.371-.093 1.935-.286.563-.194 1.026-.43 1.395-.716.38-.293.648-.596.834-.908.185-.31.277-.588.277-.815 0-.261-.084-.471-.244-.615a.975.975 0 00-.648-.219c-.252 0-.436.06-.572.169-.258.246-.522.488-.79.723a7.155 7.155 0 01-.665.496c-.244.152-.487.27-.748.337a2.98 2.98 0 01-.85.11c-.067 0-.134 0-.193-.01a2.306 2.306 0 01-1.077-.336 2.454 2.454 0 01-.916-1c-.236-.454-.354-.976-.362-1.565h5.08c.673 0 1.203-.1 1.581-.286.37-.201.556-.622.556-1.27 0-.706-.177-1.396-.539-2.077-.362-.673-.908-1.228-1.631-1.658-.724-.428-1.6-.639-2.608-.639h-.084zm10.388 0a5.914 5.914 0 00-2.053.37 4.547 4.547 0 00-1.624 1.077 4.822 4.822 0 00-.991 1.69 6.495 6.495 0 00-.345 2.137c0 1.632.462 2.91 1.387 3.86.875.901 2.086 1.371 3.626 1.422.084.008.176.009.268.009.724 0 1.372-.093 1.935-.286.563-.194 1.026-.43 1.396-.716.37-.293.648-.596.833-.908.185-.31.278-.588.278-.815 0-.261-.085-.471-.253-.615-.16-.142-.378-.219-.647-.219-.245 0-.43.06-.564.169-.328.303-.588.547-.79.723-.215.179-.44.344-.674.496-.234.152-.487.27-.74.337-.26.076-.537.11-.849.11-.067 0-.135 0-.193-.01a2.31 2.31 0 01-1.077-.336c-.387-.227-.69-.563-.925-1-.228-.454-.346-.976-.354-1.565h5.072c.681 0 1.211-.1 1.581-.286.38-.201.563-.622.563-1.27 0-.706-.184-1.396-.546-2.077-.361-.673-.9-1.228-1.632-1.658-.723-.428-1.59-.639-2.607-.639h-.075zm-35.327.018c-.378 0-.673.125-.883.37-.219.235-.328.605-.328 1.101v7.494c0 .504.118.9.361 1.17.245.277.547.412.926.412.387 0 .698-.135.942-.395.244-.27.37-.657.37-1.187V12.17c0-1.068.059-1.783.185-2.17.177-.488.463-.866.841-1.144.379-.269.8-.412 1.262-.412.706 0 1.186.227 1.422.681.235.455.353 1.11.353 1.969v4.314c0 .504.117.9.361 1.17.244.277.556.412.942.412.379 0 .69-.135.925-.404.236-.26.362-.657.362-1.178v-4.82c0-.57-.025-1.042-.076-1.404-.05-.37-.16-.714-.336-1.034a2.816 2.816 0 00-1.203-1.262c-.538-.295-1.152-.445-1.833-.445-.707 0-1.33.142-1.876.42-.538.286-1.034.723-1.498 1.328v-.319c0-.302-.05-.563-.159-.782a1.149 1.149 0 00-.445-.488 1.176 1.176 0 00-.615-.16zm24.93 1.79h.009c.672 0 1.22.22 1.631.657.421.437.656 1.102.723 1.993h-4.71c.093-.874.345-1.539.758-1.984.412-.446.941-.665 1.59-.665zm10.388 0h.009c.672 0 1.218.22 1.63.657.413.437.657 1.102.716 1.993h-4.702c.084-.874.337-1.539.757-1.984.413-.446.942-.665 1.59-.665zm-21.422.152h.032c.446 0 .859.135 1.229.396.387.26.69.639.917 1.135.219.496.336 1.094.336 1.784 0 .74-.117 1.353-.336 1.841-.227.488-.53.85-.909 1.085a2.28 2.28 0 01-1.237.354h-.007c-.455 0-.867-.127-1.246-.37-.386-.253-.68-.623-.9-1.11-.218-.497-.327-1.094-.327-1.8 0-.665.101-1.254.303-1.75.21-.505.496-.892.874-1.161.37-.278.8-.404 1.27-.404zm31.75 0h.026c.446 0 .858.135 1.236.396.379.26.682.639.909 1.135.227.496.336 1.094.336 1.784 0 .74-.11 1.353-.336 1.841-.227.488-.53.85-.9 1.085a2.303 2.303 0 01-1.245.354h-.008c-.454 0-.867-.127-1.245-.37-.378-.253-.681-.623-.9-1.11-.219-.497-.328-1.094-.328-1.8 0-.665.1-1.254.31-1.75.203-.505.497-.892.867-1.161a2.084 2.084 0 011.278-.404zM8.478 8.47a4.476 4.476 0 01-2.305.63c-.176 0-.344-.008-.521-.025v6.19c0 .572.135 1.001.396 1.287.269.295.597.438 1.009.438.42 0 .766-.143 1.026-.43.26-.285.395-.714.395-1.295V8.47z" fill="#2164F3"/></svg>