<svg width="134" height="42" viewBox="0 0 134 42" fill="none" xmlns="http://www.w3.org/2000/svg"><path d="M93.059 11.806c-.072-1.112-.718-1.627-1.185-1.82.017-1.123.035-2.282-.137-3.353-.295-1.837-2.328-5.471-6.772-6.049a12.149 12.149 0 00-2.725 0c-.796.1-1.574.317-2.308.641-.99 0-1.91-.368-2.242-.696a3.074 3.074 0 00.518 1.75c-1.697 1.366-2.557 3.209-2.74 4.351-.172 1.07-.154 2.226-.138 3.352-.466.193-1.113.709-1.185 1.822-.072 1.113 1.365 2.346 1.604 3.208.361 1.3.74 2.597 1.432 3.776.771 1.316 1.849 2.447 2.853 3.022.826.472 2.58.898 3.566.898.986 0 2.74-.426 3.566-.898 1.006-.575 2.083-1.705 2.853-3.022.691-1.18 1.07-2.476 1.432-3.776.243-.859 1.68-2.093 1.608-3.206zM77.307 7.305c1.1.335 6.25.506 9.242-.838-.119.383-.359.981-1.72 1.437 1.676-.168 2.538-.647 3.258-1.9.418 1.119 1.374 1.199 1.553 2.685 0 .395.02.87.015 1.266v.288l-.745.07c-.566-.325-1.473-.498-2.509-.452-.969.04-2.158.222-2.572.835h-.7c-.413-.613-1.604-.795-2.572-.835-1.035-.045-1.942.127-2.51.452l-.744-.07v-.288c-.016-.396.002-2.255.004-2.65zm11.067 5.675c-.16.092-.553.195-1.496.195-.15 0-.303 0-.452-.006-.795-.02-1.054-.18-1.28-.491-.226-.31-.424-1.018-.462-1.484.172-.12.718-.311 1.751-.355.9-.036 1.572.12 1.91.282.165.752.162 1.644.029 1.86zm-6.114-1.79c-.036.465-.229 1.168-.463 1.489-.233.32-.484.47-1.28.49-.15 0-.303.007-.452.007-.943 0-1.335-.102-1.495-.195-.133-.215-.136-1.107.029-1.857.338-.164 1.012-.321 1.91-.283 1.046.044 1.592.24 1.75.348zm1.214 5.516h1.848c.385 0 .787.171.984.459a1.428 1.428 0 01.162 1.113c-.09.34-.385.863-.78 1.258-.328.327-.961.16-1.15-.163-.187-.323-.332-.533-.533-.533H82.94c-.202 0-.346.21-.533.533-.188.323-.821.49-1.15.163-.394-.396-.69-.918-.78-1.259a1.428 1.428 0 01.162-1.113c.202-.287.6-.458.984-.458h1.852zm6.31-1.882c-.206.491-.445.967-.716 1.426-.173.296-.377.643-.597.974a2.345 2.345 0 00-.195-1.052c-.62-1.082-4.8-1.067-4.8-1.067s-4.18-.014-4.8 1.067a2.348 2.348 0 00-.194 1.052c-.22-.33-.424-.678-.597-.974-.271-.459-.51-.935-.717-1.426-.24-.575-.24-.685-.24-1.41 0-.474.279-1.806.357-2.174l.304.023c-.124.777-.224 2.103.43 2.53.389.253 1.022.366 2.051.366.158 0 .318 0 .476-.006 1.025-.025 1.6-.275 2.05-.893.197-.294.345-.618.439-.96h.88c.094.342.242.666.44.96.449.618 1.023.87 2.05.893.157 0 .317.006.475.006 1.029 0 1.662-.113 2.052-.366.654-.425.553-1.75.429-2.53l.303-.023c.08.368.358 1.7.358 2.175-.002.724-.002.834-.238 1.41z" fill="#000"/><path d="M7.004 6.88c0-1.16.951-1.659 2.024-1.659 1.949 0 4.229 1.744 5.343 1.744 1.416 0 2.447-1.287 2.447-2.653C16.823 1.366 12.306 0 9.363 0c-4.722 0-8.08 2.816-8.08 6.96 0 6.836 10.36 6.421 10.36 9.158 0 1.12-.54 1.697-2.363 1.697-2.816 0-3.851-2.024-6.172-2.024-1.66-.006-2.57 1.735-2.57 2.644 0 2.695 4.974 4.602 8.326 4.602 5.142 0 8.5-3.025 8.5-7.003C17.36 9.237 7.004 9.65 7.004 6.88zm29.667 8.534c-1.575 0-3.688 2.401-6.756 2.401-2.775 0-5.222-1.366-5.632-4.308h12.72c1.82 0 2.61-.872 2.61-2.653C39.614 5.884 35.346 0 28.881 0 22.582 0 18.19 5.51 18.19 11.56c0 6.588 4.475 11.479 11.19 11.479 4.434 0 9.735-2.486 9.735-5.055 0-1.287-1.162-2.57-2.444-2.57zM28.88 4.97c2.775 0 4.434 1.95 4.765 4.56h-9.487c.29-2.527 2.07-4.56 4.723-4.56h-.001zM53.204 0c-2.816 0-4.603.826-5.757 2.443-.21-1.366-1.203-2.196-2.732-2.196-1.74 0-2.984 1.324-2.984 3.315V19.47c0 1.992 1.245 3.315 2.984 3.315 1.739 0 2.976-1.323 2.976-3.315V9.073c0-2.322 1.366-4.103 3.81-4.103 2.158 0 3.897 1.325 3.897 4.103v10.398c0 1.99 1.24 3.314 2.984 3.314s2.984-1.324 2.984-3.314V8.036C61.37 2.98 57.886 0 53.204 0zm14.464.247c-1.744 0-2.984 1.325-2.984 3.315v15.909c0 1.99 1.24 3.314 2.984 3.314 1.743 0 2.979-1.324 2.979-3.314V3.562c0-1.99-1.24-3.315-2.98-3.315zm39.486 0c-1.865 0-3.068.83-4.182 2.485h-.084c0-1.907-1.329-2.485-2.9-2.485-1.493 0-3.068.993-3.068 2.984v16.24c0 1.99 1.245 3.314 2.984 3.314 1.739 0 2.984-1.324 2.984-3.314v-9.158c0-2.36 1.821-3.147 3.604-3.976 1.783-.83 3.561-.951 3.561-2.9.001-2.155-1.448-3.19-2.899-3.19z" fill="#3179FF"/><path d="M111.987 20.248a1.2 1.2 0 110 2.402 1.2 1.2 0 010-2.401zm10.079 2.427c-.694 0-1.144-.376-1.239-.995-.525.732-1.332 1.107-2.608 1.107-2.125 0-3.696-1.35-3.696-3.643v-5.18c0-.9.562-1.502 1.35-1.502s1.351.6 1.351 1.502v4.71c0 1.257.788 1.858 1.764 1.858 1.107 0 1.726-.81 1.726-1.858v-4.71c0-.9.563-1.502 1.351-1.502s1.351.6 1.351 1.502v7.205c.001.906-.563 1.506-1.35 1.506zm6.285.113c-2.176 0-3.734-1.107-3.734-3.228 0-3.114 3.659-3.509 6.156-3.509v-.731c0-.526-.432-.709-1.182-.709-1.577 0-1.858.92-2.571.92-.844 0-1.182-.6-1.182-1.144 0-1.089 2.158-2.024 3.752-2.024 2.496 0 3.885 1.07 3.885 3.022v5.854c0 .789-.525 1.445-1.315 1.445-.582 0-1.07-.15-1.276-.994-.468.723-1.631 1.098-2.533 1.098zm.488-2.251c1.408 0 2.045-.732 2.045-2.024v-.432c-1.632 0-3.678-.169-3.678 1.483.001.728.827.977 1.634.977l-.001-.004z" fill="#000"/><path d="M7.242 31.587h-3.01v8.348H3.004v-8.348H0v-1.016h7.242v1.016zM9.737 39.935h-1.19v-6.959h1.19v6.96zm-1.286-8.804c0-.193.058-.356.174-.49.12-.132.296-.199.527-.199.232 0 .407.067.527.2.12.133.18.296.18.489a.68.68 0 01-.18.482c-.12.128-.295.193-.527.193-.231 0-.407-.065-.527-.193a.694.694 0 01-.174-.482zM17.352 32.976v6.96h-1.196V33.96h-2.367l-.141 2.605c-.078 1.196-.279 2.052-.605 2.566-.321.515-.834.783-1.537.804h-.476v-1.048l.34-.026c.387-.043.663-.266.83-.669.168-.403.275-1.149.322-2.238l.129-2.978h4.701zM20.561 35.375h1.808c.789.009 1.413.215 1.871.618.46.403.689.95.689 1.64 0 .694-.236 1.252-.708 1.672-.472.42-1.106.63-1.904.63h-2.945v-6.959h1.19v2.4zm0 .971v2.618h1.77c.445 0 .79-.114 1.035-.34.244-.232.366-.547.366-.946 0-.386-.12-.701-.36-.946-.236-.248-.568-.377-.997-.386h-1.814zM28.582 36.97h-.869v2.965h-1.196v-6.959h1.196v2.946h.779l2.34-2.946h1.441l-2.752 3.345 2.984 3.614h-1.512l-2.411-2.965zM38.03 32.976h1.19v6.96h-1.19V34.86l-3.21 5.074h-1.19v-6.959h1.19v5.081l3.21-5.08zM50.082 39.935h-1.19v-2.971h-3.196v2.971H44.5v-6.959h1.196v3.017h3.196v-3.017h1.19v6.96zM56.295 39.935c-.069-.137-.124-.381-.167-.733-.553.575-1.214.862-1.981.862-.686 0-1.25-.193-1.692-.579a1.897 1.897 0 01-.656-1.48c0-.724.275-1.286.824-1.684.553-.403 1.329-.605 2.328-.605h1.157v-.547c0-.415-.124-.745-.373-.99-.248-.249-.615-.373-1.1-.373-.424 0-.78.107-1.067.322-.287.214-.43.473-.43.778H51.94c0-.347.122-.682.366-1.003a2.542 2.542 0 011.004-.772c.424-.189.89-.283 1.395-.283.802 0 1.43.201 1.885.604.454.4.69.95.707 1.653v3.203c0 .639.082 1.147.245 1.524v.103h-1.248zm-1.974-.907a2.09 2.09 0 001.06-.289 1.75 1.75 0 00.727-.752v-1.428h-.932c-1.458 0-2.187.426-2.187 1.28 0 .373.125.664.373.874.249.21.568.315.959.315zM63.666 32.976h1.19v6.96h-1.19V34.86l-3.21 5.074h-1.19v-6.959h1.19v5.081l3.21-5.08zm.321-2.534c0 .52-.178.937-.534 1.255-.351.313-.814.469-1.389.469-.575 0-1.04-.159-1.396-.476-.355-.317-.533-.733-.533-1.248h.97c0 .3.082.536.245.708.163.167.401.25.714.25.3 0 .534-.083.701-.25.172-.167.257-.403.257-.708h.965zM66.868 32.976h1.197v5.988h3.203v-5.988h1.19v5.988h.829L73.171 42h-1.067v-2.065h-5.236v-6.959zM75.866 39.935h-1.19v-6.959h1.19v6.96zm-1.286-8.804c0-.193.058-.356.173-.49.12-.132.296-.199.528-.199.231 0 .407.067.527.2.12.133.18.296.18.489a.68.68 0 01-.18.482c-.12.128-.296.193-.527.193-.232 0-.407-.065-.528-.193a.694.694 0 01-.173-.482zM79.944 36.97h-.869v2.965H77.88v-6.959h1.196v2.946h.779l2.34-2.946h1.441l-2.752 3.345 2.984 3.614h-1.512l-2.411-2.965zM89.186 39.935c-.069-.137-.125-.381-.168-.733-.553.575-1.213.862-1.98.862-.686 0-1.25-.193-1.692-.579a1.897 1.897 0 01-.656-1.48c0-.724.275-1.286.823-1.684.553-.403 1.33-.605 2.328-.605H89v-.547c0-.415-.124-.745-.373-.99-.249-.249-.615-.373-1.1-.373-.424 0-.78.107-1.067.322-.288.214-.431.473-.431.778h-1.196c0-.347.122-.682.366-1.003a2.541 2.541 0 011.004-.772c.424-.189.89-.283 1.395-.283.802 0 1.43.201 1.885.604.454.4.69.95.707 1.653v3.203c0 .639.082 1.147.244 1.524v.103h-1.247zm-1.975-.907a2.09 2.09 0 001.061-.289 1.75 1.75 0 00.727-.752v-1.428h-.932c-1.458 0-2.187.426-2.187 1.28 0 .373.124.664.373.874.249.21.568.315.958.315zM92.163 39.935v-6.959h2.715c.926 0 1.635.163 2.128.49.498.32.746.795.746 1.42 0 .322-.096.614-.289.875-.193.258-.478.455-.855.592.42.099.756.291 1.01.579.257.287.385.63.385 1.029 0 .639-.236 1.128-.707 1.466-.468.339-1.13.508-1.988.508h-3.145zm1.19-3.055v2.097h1.968c.498 0 .869-.092 1.113-.277.249-.184.373-.443.373-.778 0-.694-.51-1.042-1.53-1.042h-1.924zm0-.952h1.538c1.114 0 1.672-.325 1.672-.977 0-.652-.528-.988-1.582-1.01h-1.628v1.987zM100.872 39.935h-1.19v-6.959h1.19v6.96zm-1.287-8.804c0-.193.058-.356.174-.49.12-.132.296-.199.527-.199.232 0 .408.067.528.2.12.133.18.296.18.489a.68.68 0 01-.18.482c-.12.128-.296.193-.528.193-.231 0-.407-.065-.527-.193a.694.694 0 01-.174-.482zM104.081 32.976v5.988h2.547v-5.988h1.19v5.988h2.54v-5.988h1.196v6.96h-8.669v-6.96h1.196zM116.32 40.064c-.943 0-1.711-.309-2.302-.926-.592-.622-.888-1.452-.888-2.49v-.218c0-.69.131-1.306.393-1.846a3.08 3.08 0 011.106-1.273c.476-.309.99-.463 1.543-.463.905 0 1.608.298 2.11.894.501.596.752 1.449.752 2.56v.495h-4.714c.017.686.217 1.241.598 1.666.386.42.875.63 1.467.63.42 0 .776-.086 1.067-.258.292-.171.547-.398.766-.681l.726.566c-.583.896-1.458 1.344-2.624 1.344zm-.148-6.239c-.48 0-.883.176-1.209.528-.326.347-.527.836-.604 1.466h3.485v-.09c-.034-.605-.197-1.072-.488-1.402-.292-.334-.686-.502-1.184-.502z" fill="#9F9F9F"/></svg>