<svg version="1.1" id="Слой_1" xmlns="http://www.w3.org/2000/svg" x="0" y="0" width="67" height="24" viewBox="0 0 67 24" xml:space="preserve"><path d="M23.5 5v4.3c0 .1.1.2.2.2H25c.1 0 .2-.1.2-.2V5L28.3.5c.1-.2 0-.4-.2-.4h-1.4c-.1 0-.2.1-.2.1l-2.1 3.1L22.3.2c0-.1-.1-.1-.2-.1h-1.4c-.2 0-.3.2-.2.4l3 4.5zm10.7 4.6c2.7 0 4.8-2.1 4.8-4.8S36.9 0 34.2 0s-4.8 2.2-4.8 4.8 2.1 4.8 4.8 4.8zm0-7.9c1.7 0 3.1 1.4 3.1 3.1 0 1.7-1.4 3.1-3.1 3.1s-3.1-1.4-3.1-3.1c0-1.7 1.4-3.1 3.1-3.1zm10.4 7.9c2.1 0 3.7-1.6 3.7-3.7V.4c0-.1-.1-.2-.2-.2h-1.3c-.1 0-.2.1-.2.2v5.5c0 1.1-.8 2-2 2s-1.9-.9-1.9-2V.4c0-.1-.1-.2-.2-.2h-1.3c-.1 0-.2.1-.2.2V6c-.2 2 1.4 3.6 3.6 3.6zm-37 11.9c-.1-.1-.2-.1-.3 0-.6.5-1.2.8-2.1.8-1.7 0-3-1.4-3-3.1 0-1.7 1.3-3.1 3-3.1.7 0 1.5.3 2.1.8.1.1.2.1.3 0l.8-.9c.1-.1.1-.3 0-.4-.9-.8-1.9-1.2-3.2-1.2-2.7 0-4.8 2.1-4.8 4.8S2.5 24 5.1 24c1.2 0 2.3-.4 3.2-1.3.1-.1.1-.3 0-.4.1 0-.7-.8-.7-.8zm6.6-7.1c-2.7 0-4.8 2.2-4.8 4.8s2.1 4.8 4.8 4.8 4.8-2.1 4.8-4.8-2.1-4.8-4.8-4.8zm0 7.9c-1.7 0-3.1-1.4-3.1-3.1 0-1.7 1.4-3.1 3.1-3.1s3.1 1.4 3.1 3.1c0 1.7-1.4 3.1-3.1 3.1zm14.3-7.8h-1.2c-.1 0-.2.1-.2.2v5.5l-5.6-5.9h-.3c-.1 0-.2.1-.2.2v9c0 .1.1.2.2.2h1.2c.1 0 .2-.1.2-.2v-5.8l5.6 6.2h.3c.1 0 .2-.1.2-.2v-9c0-.1-.1-.2-.2-.2zm38 7.8h-3.4v-7.5c0-.1-.1-.2-.2-.2h-1.2c-.1 0-.2.1-.2.2v8.9c0 .1.1.2.2.2h4.9c.1 0 .2-.1.2-.2v-1.1c0-.2-.1-.3-.3-.3zm-19-4.9c0-1.6-1.3-2.9-2.9-2.9h-3.8c-.1 0-.2.1-.2.2v8.9c0 .1.1.2.2.2H42c.1 0 .2-.1.2-.2v-3.4h1.5l1.8 3.5c0 .1.1.1.2.1h1.4c.2 0 .3-.2.2-.4L45.5 20c1.2-.4 2-1.4 2-2.6zm-3 1.4h-2.2v-2.7h2.2c.7 0 1.3.6 1.3 1.3 0 .8-.6 1.4-1.3 1.4zm9.7-4.4c-2.7 0-4.8 2.2-4.8 4.8s2.1 4.8 4.8 4.8 4.8-2.1 4.8-4.8-2.1-4.8-4.8-4.8zm0 7.9c-1.7 0-3.1-1.4-3.1-3.1 0-1.7 1.4-3.1 3.1-3.1s3.1 1.4 3.1 3.1c0 1.7-1.4 3.1-3.1 3.1z"/><path d="M66.7 12.6v-1.1c0-.1-.1-.2-.2-.2H.8c-.1 0-.2.1-.2.2v1.1c0 .1.1.2.2.2h32.6v10.7c0 .1.1.2.2.2h1.2c.1 0 .2-.1.2-.2V12.9h31.4c.2 0 .3-.2.3-.3z"/></svg>